<?xml version="1.0" encoding="UTF-8"?>
<svg version="1.1" xmlns="http://www.w3.org/2000/svg" width="829" height="228">
<path d="M0 0 C0.95712891 0.00966797 1.91425781 0.01933594 2.90039062 0.02929688 C9.893449 0.143449 9.893449 0.143449 11.0625 1.3125 C11.25 3.75 11.25 3.75 11.0625 6.3125 C8.62571909 8.74928091 7.97160677 8.56111624 4.6328125 8.5859375 C3.31603516 8.616875 3.31603516 8.616875 1.97265625 8.6484375 C0.12378989 8.6743683 -1.72520015 8.69266379 -3.57421875 8.703125 C-4.45464844 8.72632813 -5.33507812 8.74953125 -6.2421875 8.7734375 C-7.04640137 8.78165527 -7.85061523 8.78987305 -8.67919922 8.79833984 C-11.94303091 9.54143493 -12.91458779 10.62616927 -14.9375 13.3125 C-16.31205185 16.35457246 -17.33619426 19.48647394 -18.36328125 22.66015625 C-18.67396042 23.58606064 -18.98463959 24.51196503 -19.30473328 25.46592712 C-20.29772913 28.43201035 -21.27450154 31.40312137 -22.25 34.375 C-29.85417864 57.29466396 -29.85417864 57.29466396 -33.66796875 67.87109375 C-33.93861649 68.6384938 -34.20926422 69.40589386 -34.4881134 70.19654846 C-36.14255913 74.7178183 -38.10594491 78.4137701 -40.9375 82.3125 C-40.463125 82.910625 -39.98875 83.50875 -39.5 84.125 C-36.36476909 88.51432327 -36.41500382 93.11410576 -36.9375 98.3125 C-39.02840909 103.40340909 -39.02840909 103.40340909 -40.9375 105.3125 C-40.22094238 105.45349121 -39.50438477 105.59448242 -38.76611328 105.73974609 C-35.52995068 106.38109564 -32.29625843 107.03414132 -29.0625 107.6875 C-27.93457031 107.90921875 -26.80664062 108.1309375 -25.64453125 108.359375 C-24.56816406 108.57851562 -23.49179688 108.79765625 -22.3828125 109.0234375 C-21.38781738 109.22243652 -20.39282227 109.42143555 -19.36767578 109.62646484 C-16.9375 110.3125 -16.9375 110.3125 -14.9375 112.3125 C-15.49305556 116.86805556 -15.49305556 116.86805556 -16.9375 118.3125 C-23.07303202 118.26399777 -29.07862196 117.13442732 -35.0625 115.875 C-48.98934152 112.9840341 -62.8013712 111.93138084 -77 112 C-78.12730026 112.00173721 -78.12730026 112.00173721 -79.27737427 112.00350952 C-95.87743469 112.05371375 -112.67236803 112.97040978 -128.66796875 117.76171875 C-131.18025047 118.3714119 -133.36144406 118.47711843 -135.9375 118.3125 C-136.9375 117.3125 -136.9375 117.3125 -137.3125 114.9375 C-136.9375 112.3125 -136.9375 112.3125 -135.02734375 110.78515625 C-130.84477224 108.79169297 -126.65644692 107.99344285 -122.125 107.125 C-120.79952148 106.85913086 -120.79952148 106.85913086 -119.44726562 106.58789062 C-117.27888494 106.15421449 -115.10916113 105.72937996 -112.9375 105.3125 C-113.66839844 103.9821875 -113.66839844 103.9821875 -114.4140625 102.625 C-116.97944016 97.04694806 -116.7723765 91.77074746 -114.8125 86 C-111.93394284 81.87406808 -108.80387047 78.93462349 -103.9375 77.3125 C-102.19516161 77.20177975 -100.44906711 77.1462988 -98.70336914 77.12304688 C-97.63538589 77.10632935 -96.56740265 77.08961182 -95.46705627 77.0723877 C-93.73732826 77.05202454 -93.73732826 77.05202454 -91.97265625 77.03125 C-90.78780136 77.01284058 -89.60294647 76.99443115 -88.38218689 76.97546387 C-84.58817565 76.91664078 -80.79411919 76.86385945 -77 76.8125 C-72.01162262 76.74488026 -67.02338973 76.67119106 -62.03515625 76.59375 C-60.88402847 76.58017456 -59.7329007 76.56659912 -58.54689026 76.5526123 C-56.94018715 76.52753601 -56.94018715 76.52753601 -55.30102539 76.50195312 C-54.35965225 76.48942505 -53.41827911 76.47689697 -52.44837952 76.46398926 C-49.09094271 76.31173856 -49.09094271 76.31173856 -45.9375 75.3125 C-44.64089566 72.82215614 -44.64089566 72.82215614 -43.9375 70.3125 C-44.70091705 70.30663376 -45.46433411 70.30076752 -46.25088501 70.29472351 C-53.46014483 70.2367189 -60.66906209 70.16459829 -67.87801552 70.07678509 C-71.58385653 70.03213726 -75.28958903 69.99286923 -78.99560547 69.96606445 C-82.57494733 69.93997511 -86.15387036 69.89953397 -89.73295212 69.84931374 C-91.09557239 69.83268285 -92.45826505 69.82114507 -93.82097244 69.81488609 C-95.73574651 69.80520469 -97.65038645 69.77541462 -99.56494141 69.74487305 C-101.19709091 69.72821846 -101.19709091 69.72821846 -102.86221313 69.71122742 C-106.43447697 69.24806427 -108.8624157 68.16490894 -111.9375 66.3125 C-113.18188477 64.05444336 -113.18188477 64.05444336 -113.87890625 61.40234375 C-114.15017334 60.42080322 -114.42144043 59.4392627 -114.70092773 58.42797852 C-114.96462158 57.37924561 -115.22831543 56.3305127 -115.5 55.25 C-115.78883057 54.17613037 -116.07766113 53.10226074 -116.37524414 51.99584961 C-116.96240328 49.81044817 -117.54081828 47.62267817 -118.11035156 45.43261719 C-118.85660489 42.61764743 -119.65514374 39.82813108 -120.4921875 37.0390625 C-120.72736084 36.24508057 -120.96253418 35.45109863 -121.20483398 34.63305664 C-121.6353756 33.1823902 -122.07189013 31.7334757 -122.51586914 30.28686523 C-123.90586689 25.43931461 -124.86501428 20.33297309 -123.9375 15.3125 C-122.01583771 12.86191399 -120.96853063 12.32284354 -117.9375 11.3125 C-115.16944572 11.21091333 -112.42648769 11.16566424 -109.65820312 11.16723633 C-108.81402328 11.16387772 -107.96984344 11.1605191 -107.1000824 11.15705872 C-104.30629002 11.14755036 -101.51255756 11.1456058 -98.71875 11.14453125 C-96.77966283 11.1413191 -94.84057591 11.13795506 -92.90148926 11.13444519 C-88.83617592 11.12845458 -84.77088385 11.12660527 -80.70556641 11.12719727 C-75.48986557 11.127299 -70.27430052 11.11363467 -65.0586319 11.09642506 C-61.05413178 11.08532229 -57.0496647 11.08327751 -53.04515076 11.08380699 C-51.12177562 11.08262474 -49.1983997 11.07818928 -47.27503967 11.07047462 C-44.58886104 11.06070745 -41.90298001 11.06353953 -39.21679688 11.06958008 C-38.41878159 11.06396057 -37.6207663 11.05834106 -36.79856873 11.05255127 C-32.97518989 11.07446529 -31.19681089 11.13962607 -27.9375 13.3125 C-28.8125 18.1875 -28.8125 18.1875 -29.9375 19.3125 C-32.61537973 19.40762944 -35.26738869 19.43805279 -37.94555664 19.42602539 C-38.78450974 19.42617142 -39.62346283 19.42631744 -40.48783875 19.4264679 C-43.27447044 19.4257685 -46.06103616 19.41797485 -48.84765625 19.41015625 C-50.77436791 19.40829217 -52.70108005 19.40686822 -54.62779236 19.40586853 C-59.70937397 19.40204259 -64.7909272 19.39221166 -69.87249756 19.38116455 C-75.05366634 19.37095206 -80.23483969 19.36637126 -85.41601562 19.36132812 C-95.58985625 19.35058946 -105.76367577 19.33351213 -115.9375 19.3125 C-115.7108667 20.10309814 -115.4842334 20.89369629 -115.25073242 21.70825195 C-114.39470666 24.69572296 -113.53931517 27.68337471 -112.68432617 30.67114258 C-112.13833324 32.57842385 -111.59163636 34.48550356 -111.04492188 36.39257812 C-110.0039759 40.03111406 -108.96911227 43.67130759 -107.9375 47.3125 C-107.63021973 48.39063965 -107.32293945 49.4687793 -107.00634766 50.57958984 C-106.59521729 52.0464624 -106.59521729 52.0464624 -106.17578125 53.54296875 C-105.93512939 54.39656982 -105.69447754 55.2501709 -105.4465332 56.12963867 C-104.9375 58.3125 -104.9375 58.3125 -104.9375 61.3125 C-83.4875 61.3125 -62.0375 61.3125 -39.9375 61.3125 C-39.2775 58.3425 -38.6175 55.3725 -37.9375 52.3125 C-38.72454819 52.30219254 -39.51159637 52.29188507 -40.32249451 52.28126526 C-47.72448107 52.18345812 -55.12638068 52.08096814 -62.52822781 51.97316074 C-66.33397405 51.91789706 -70.13972792 51.86447171 -73.94555664 51.81518555 C-77.61549335 51.76759259 -81.28533391 51.71525191 -84.95515633 51.65955925 C-86.35822227 51.63911263 -87.7613146 51.62040343 -89.1644268 51.60342598 C-91.12326926 51.57943313 -93.08202701 51.54879801 -95.04077148 51.51782227 C-96.15773911 51.50227798 -97.27470673 51.4867337 -98.42552185 51.47071838 C-100.9375 51.3125 -100.9375 51.3125 -101.9375 50.3125 C-101.97830783 48.31291636 -101.98004356 46.31204746 -101.9375 44.3125 C-99.12534488 42.90642244 -96.7970578 43.19299514 -93.65185547 43.19897461 C-93.00782776 43.19882858 -92.36380005 43.19868256 -91.70025635 43.1985321 C-89.56836598 43.1992296 -87.43656263 43.20701434 -85.3046875 43.21484375 C-83.82781014 43.21670851 -82.35093216 43.21813214 -80.87405396 43.21913147 C-76.98437801 43.22295208 -73.09473933 43.23277848 -69.20507812 43.24383545 C-65.23698429 43.25405936 -61.26888445 43.25863119 -57.30078125 43.26367188 C-49.51300384 43.27440115 -41.72525714 43.29147211 -33.9375 43.3125 C-33.6075 41.3325 -33.2775 39.3525 -32.9375 37.3125 C-33.84538773 37.30441315 -34.75327545 37.29632629 -35.68867493 37.28799438 C-44.23794355 37.21010571 -52.78705346 37.12283243 -61.33611774 37.02497292 C-65.73145189 36.97499261 -70.12676179 36.92866279 -74.5222168 36.890625 C-78.76279656 36.85379401 -83.00317439 36.80744015 -87.24358177 36.75443649 C-88.86268769 36.73588088 -90.48183692 36.72077723 -92.10100746 36.70915604 C-94.36613338 36.69231335 -96.63079564 36.66328385 -98.89575195 36.63134766 C-100.18592728 36.61802399 -101.4761026 36.60470032 -102.80537415 36.5909729 C-105.9375 36.3125 -105.9375 36.3125 -108.9375 34.3125 C-109.1875 31.75 -109.1875 31.75 -108.9375 29.3125 C-107.2292059 27.6042059 -105.07745623 28.19278074 -102.79963684 28.18807983 C-102.06452377 28.19167511 -101.32941071 28.19527039 -100.57202148 28.19897461 C-99.80134338 28.19882858 -99.03066528 28.19868256 -98.2366333 28.1985321 C-95.67725861 28.1992314 -93.1179558 28.20702455 -90.55859375 28.21484375 C-88.78882385 28.21670787 -87.01905344 28.2181318 -85.24928284 28.21913147 C-80.58198634 28.22295712 -75.91472077 28.2327878 -71.24743652 28.24383545 C-66.48852965 28.25404856 -61.72961779 28.25862887 -56.97070312 28.26367188 C-47.62628847 28.27441003 -38.2818968 28.29148701 -28.9375 28.3125 C-28.73761475 27.63993164 -28.53772949 26.96736328 -28.33178711 26.27441406 C-28.0663208 25.38463867 -27.80085449 24.49486328 -27.52734375 23.578125 C-27.2655835 22.69930664 -27.00382324 21.82048828 -26.73413086 20.91503906 C-22.09897641 5.7723034 -22.09897641 5.7723034 -15.4765625 2.16015625 C-10.36996732 -0.28799704 -5.56714751 -0.17361167 0 0 Z M-105.8125 87.375 C-108.17858907 90.19776062 -108.17858907 90.19776062 -108.5625 93.8125 C-107.76633761 98.27100936 -106.62936542 99.72033917 -102.9375 102.3125 C-98.97273594 102.93851538 -96.93987979 102.97196039 -93.5625 100.75 C-91.38523715 97.48410572 -90.9375 95.23266134 -90.9375 91.3125 C-92.70391172 88.51060554 -93.96799822 86.79725089 -96.9375 85.3125 C-100.9505324 84.77742901 -102.47678033 84.98198372 -105.8125 87.375 Z M-84.9375 85.3125 C-84.6075 86.6325 -84.2775 87.9525 -83.9375 89.3125 C-83.84766313 90.78952386 -83.8073709 92.27025548 -83.8125 93.75 C-83.80992188 94.49121094 -83.80734375 95.23242188 -83.8046875 95.99609375 C-83.9375 98.3125 -83.9375 98.3125 -84.9375 103.3125 C-79.3275 103.3125 -73.7175 103.3125 -67.9375 103.3125 C-68.2675 101.9925 -68.5975 100.6725 -68.9375 99.3125 C-69.02820579 97.6477819 -69.06758286 95.97967967 -69.0625 94.3125 C-69.06507812 93.466875 -69.06765625 92.62125 -69.0703125 91.75 C-68.9375 89.3125 -68.9375 89.3125 -67.9375 85.3125 C-73.5475 85.3125 -79.1575 85.3125 -84.9375 85.3125 Z M-59.8125 87.375 C-62.17858907 90.19776062 -62.17858907 90.19776062 -62.5625 93.8125 C-61.76633761 98.27100936 -60.62936542 99.72033917 -56.9375 102.3125 C-53.4375 103.14583333 -53.4375 103.14583333 -49.9375 102.3125 C-46.55072911 99.86249553 -45.15051416 98.44857554 -44.375 94.3125 C-45.06107657 90.65342496 -46.36484314 88.96082324 -48.9375 86.3125 C-53.11595339 84.22327331 -56.07872077 84.69641925 -59.8125 87.375 Z " fill="#0EAB0E" transform="translate(175.9375,53.6875)"/>
<path d="M0 0 C6.24607694 4.93416858 10.91247369 9.821806 13.1015625 17.66015625 C13.5965625 22.11515625 13.5965625 22.11515625 14.1015625 26.66015625 C7.1715625 26.66015625 0.2415625 26.66015625 -6.8984375 26.66015625 C-7.8884375 24.02015625 -8.8784375 21.38015625 -9.8984375 18.66015625 C-13.80541609 14.27671686 -17.44772034 12.65665304 -23.2421875 11.7578125 C-28.65118299 11.55895237 -33.45056627 12.74823998 -37.75390625 16.109375 C-44.24066374 22.98053293 -45.15690626 30.63969378 -45.2734375 39.72265625 C-45.28745605 40.47844971 -45.30147461 41.23424316 -45.31591797 42.01293945 C-45.24754673 50.07285632 -42.91633694 56.32661632 -37.43359375 62.25390625 C-33.61170971 65.75486873 -28.92876341 66.32480119 -23.8984375 66.66015625 C-19.18766861 66.2230746 -15.81998646 65.36133481 -12.0234375 62.47265625 C-9.3646932 59.18742793 -9.3646932 59.18742793 -6.8984375 52.66015625 C0.0315625 52.66015625 6.9615625 52.66015625 14.1015625 52.66015625 C12.76956454 63.31613991 9.55947922 70.85744474 1.1015625 77.66015625 C-9.62246606 85.19858903 -21.56414316 86.6607784 -34.359375 85.421875 C-45.06962807 83.50794891 -53.679443 77.43741895 -59.8984375 68.66015625 C-67.79751972 55.66294188 -69.33041389 39.44741068 -66.17578125 24.6171875 C-64.35960994 18.34514651 -61.76726251 12.91070448 -57.8984375 7.66015625 C-57.0321875 6.36078125 -57.0321875 6.36078125 -56.1484375 5.03515625 C-41.80822175 -10.10173815 -16.71943257 -12.02263084 0 0 Z " fill="#21303A" transform="translate(591.8984375,77.33984375)"/>
<path d="M0 0 C6.27 0 12.54 0 19 0 C19.33 9.9 19.66 19.8 20 30 C22.64 27.69 25.28 25.38 28 23 C34.55246546 20.81584485 44.17470591 20.6544381 50.5625 23.5625 C56.7740815 27.42448328 60.23553831 32.53162829 62.40664673 39.41256714 C63.48611576 44.11980273 63.36555492 48.79089361 63.29296875 53.59765625 C63.28872391 54.67252792 63.28447906 55.7473996 63.28010559 56.85484314 C63.26343339 60.25765998 63.22580223 63.65986488 63.1875 67.0625 C63.17243837 69.38215285 63.15875256 71.70181507 63.14648438 74.02148438 C63.11356737 79.68122213 63.06186451 85.34050764 63 91 C56.4 91 49.8 91 43 91 C42.96261719 88.04933594 42.92523438 85.09867187 42.88671875 82.05859375 C42.84044408 79.18571767 42.78923202 76.31296882 42.73754883 73.44018555 C42.70439316 71.45100706 42.67633235 69.46173661 42.65356445 67.47241211 C42.619846 64.60490916 42.56752177 61.73824183 42.51171875 58.87109375 C42.50532883 57.98852402 42.4989389 57.10595428 42.49235535 56.19664001 C42.36400138 50.74749 41.64437819 46.80480515 39 42 C34.97685134 39.31790089 31.72780081 39.31156585 27 40 C23.50109996 42.11391877 22.29421314 43.11736059 21 47 C20.89161426 48.42126374 20.8342205 49.84677876 20.81054688 51.27197266 C20.79382935 52.12941071 20.77711182 52.98684875 20.7598877 53.87026978 C20.74631226 54.79222137 20.73273682 55.71417297 20.71875 56.6640625 C20.70034058 57.61187592 20.68193115 58.55968933 20.66296387 59.53622437 C20.58419502 63.59662482 20.51634917 67.65719032 20.44775391 71.71777344 C20.39617398 74.67912374 20.33888261 77.64032484 20.28125 80.6015625 C20.26767456 81.52756256 20.25409912 82.45356262 20.2401123 83.40762329 C20.22339478 84.25875702 20.20667725 85.10989075 20.18945312 85.98681641 C20.17066101 87.11574814 20.17066101 87.11574814 20.15148926 88.26748657 C20 90 20 90 19 91 C12.73 91 6.46 91 0 91 C0 60.97 0 30.94 0 0 Z " fill="#21303A" transform="translate(454,71)"/>
<path d="M0 0 C20.13 0 40.26 0 61 0 C61 5.61 61 11.22 61 17 C47.8 17 34.6 17 21 17 C21 23.6 21 30.2 21 37 C32.88 37 44.76 37 57 37 C57 42.61 57 48.22 57 54 C45.12 54 33.24 54 21 54 C21 66.21 21 78.42 21 91 C14.07 91 7.14 91 0 91 C0 60.97 0 30.94 0 0 Z " fill="#21303A" transform="translate(210,71)"/>
<path d="M0 0 C4.95365873 6.1545457 4.32797713 13.00254236 4.2578125 20.5234375 C4.2549826 21.66914215 4.25215271 22.8148468 4.24923706 23.99526978 C4.23807135 27.64278755 4.21297299 31.29005685 4.1875 34.9375 C4.17746555 37.41536103 4.16834051 39.89322592 4.16015625 42.37109375 C4.13814376 48.43499109 4.10363838 54.49870346 4.0625 60.5625 C-2.2075 60.5625 -8.4775 60.5625 -14.9375 60.5625 C-15.2675 58.5825 -15.5975 56.6025 -15.9375 54.5625 C-17.236875 55.738125 -17.236875 55.738125 -18.5625 56.9375 C-24.98786494 62.18785608 -31.91810157 62.22814177 -39.9375 61.5625 C-45.91352835 60.35920495 -50.97920191 57.20547668 -54.9375 52.5625 C-57.83936415 46.84611878 -57.67785054 40.81770664 -56.9375 34.5625 C-54.9962298 29.46064938 -51.64734687 25.32697534 -46.9375 22.5625 C-37.7240975 19.11381356 -27.61496808 18.06362541 -17.9375 16.5625 C-16.98582752 13.47119647 -16.98582752 13.47119647 -17.75 10.375 C-18.81871987 8.41227807 -18.81871987 8.41227807 -20.9375 7.5625 C-26.27993433 7.21217644 -29.58536539 7.1063931 -33.9375 10.5625 C-34.5975 11.5525 -35.2575 12.5425 -35.9375 13.5625 C-38.765625 13.890625 -38.765625 13.890625 -42.1875 13.8125 C-43.86585938 13.78929687 -43.86585938 13.78929687 -45.578125 13.765625 C-48.76397837 13.57299201 -51.80307907 13.15139121 -54.9375 12.5625 C-54.60425422 5.89758435 -51.02904272 1.37106398 -46.23046875 -2.98828125 C-32.48863306 -13.50404265 -12.65390519 -10.50004898 0 0 Z M-36.9375 36.5625 C-38.11607166 39.50892916 -38.19999601 40.83558798 -37.125 43.8125 C-36.04350632 45.71324924 -36.04350632 45.71324924 -33.9375 46.5625 C-28.93135993 47.11173479 -25.01636216 47.08266569 -20.4375 44.875 C-17.74547787 42.38487953 -16.76191122 41.10746825 -15.9375 37.5625 C-15.86103835 35.2304198 -15.84606701 32.89404122 -15.9375 30.5625 C-23.38394113 30.5625 -31.36326271 31.28957283 -36.9375 36.5625 Z " fill="#21303A" transform="translate(667.9375,101.4375)"/>
<path d="M0 0 C9.24270929 9.55602147 9.03125 18.91702461 9.03125 32.28125 C-5.81875 32.28125 -20.66875 32.28125 -35.96875 32.28125 C-33.89578652 40.73620843 -33.89578652 40.73620843 -30.40625 43.84375 C-25.80452225 45.76810888 -21.88892781 45.97122485 -16.96875 45.28125 C-13.28251989 43.66852433 -12.2152 42.650925 -9.96875 39.28125 C-6.88671875 38.953125 -6.88671875 38.953125 -3.15625 39.03125 C-1.32126953 39.05445313 -1.32126953 39.05445313 0.55078125 39.078125 C3.49481648 39.24994299 6.16856527 39.60511113 9.03125 40.28125 C7.32946822 47.28286646 4.67272371 52.64643331 -0.96875 57.28125 C-4.2043786 59.00359999 -7.45867258 60.24057378 -10.96875 61.28125 C-11.59136719 61.47332031 -12.21398437 61.66539062 -12.85546875 61.86328125 C-22.32918228 63.73701017 -32.72717217 62.87183509 -41.1484375 58.02734375 C-48.68999459 52.8051712 -53.409704 46.36466143 -55.5 37.40625 C-57.30519764 25.37159906 -56.51495329 13.4728128 -49.6171875 3.16796875 C-43.29250045 -4.07095031 -34.95022743 -7.8227066 -25.5234375 -8.6796875 C-15.82133451 -8.8280377 -7.33947676 -6.40747971 0 0 Z M-31.96875 11.28125 C-34.97383738 14.90183376 -34.97383738 14.90183376 -35.96875 19.28125 C-27.38875 19.28125 -18.80875 19.28125 -9.96875 19.28125 C-11.03868424 13.93157879 -12.35770398 11.17200746 -16.78125 7.96875 C-22.96957136 6.023849 -27.09711682 7.16742643 -31.96875 11.28125 Z " fill="#21303A" transform="translate(372.96875,100.71875)"/>
<path d="M0 0 C0.86044922 -0.02900391 1.72089844 -0.05800781 2.60742188 -0.08789062 C10.27243349 -0.16298117 16.4576456 1.98972121 22.625 6.5625 C26.93329042 10.97098322 29.3125 15.10195414 29.3125 21.3125 C25.06697858 22.09609094 20.94120259 22.55716171 16.625 22.6875 C15.50738281 22.73648438 14.38976562 22.78546875 13.23828125 22.8359375 C12.27277344 22.66320312 11.30726563 22.49046875 10.3125 22.3125 C8.65234375 19.8828125 8.65234375 19.8828125 7.3125 17.3125 C4.13802416 15.49062691 0.78218363 14.92021602 -2.765625 15.8671875 C-4.90426018 16.7448528 -4.90426018 16.7448528 -7.6875 18.3125 C-7.6875 20.2925 -7.6875 22.2725 -7.6875 24.3125 C-6.44355469 24.55484375 -5.19960938 24.7971875 -3.91796875 25.046875 C21.24317041 30.06190555 21.24317041 30.06190555 28.3125 37.3125 C31.41181547 42.20728099 30.77063723 47.73223834 30.3125 53.3125 C28.40135655 59.64316269 23.07975149 64.18520193 17.41015625 67.38671875 C7.45817007 71.85095763 -5.40466263 71.85512837 -15.609375 68.22265625 C-22.19134082 65.33995317 -26.78432104 61.11885791 -30 54.6875 C-30.6875 52.3125 -30.6875 52.3125 -30.6875 48.3125 C-26.73958027 47.0549381 -22.72992525 47.01878565 -18.625 46.9375 C-17.90505859 46.90011719 -17.18511719 46.86273438 -16.44335938 46.82421875 C-14.33984375 46.7890625 -14.33984375 46.7890625 -10.6875 47.3125 C-8.796875 49.75390625 -8.796875 49.75390625 -7.6875 52.3125 C-4.17294638 55.04604171 0.06128257 54.71405237 4.3125 54.3125 C6.7711786 53.87840267 6.7711786 53.87840267 8.3125 52.3125 C8.69802108 50.32190094 9.0351824 48.32103331 9.3125 46.3125 C8.30832031 46.07015625 7.30414063 45.8278125 6.26953125 45.578125 C1.94157298 44.52392649 -2.37409554 43.42456486 -6.6875 42.3125 C-7.91210938 42.00054687 -9.13671875 41.68859375 -10.3984375 41.3671875 C-16.80482709 39.59012372 -22.51692637 37.76632706 -26.6875 32.3125 C-29.57092523 26.58474683 -29.32648333 20.57611436 -28.6875 14.3125 C-25.55310834 7.69545094 -20.23786176 4.23925738 -13.6875 1.3125 C-9.16160453 -0.03454102 -4.68848741 0.05152184 0 0 Z " fill="#20303A" transform="translate(416.6875,92.6875)"/>
<path d="M0 0 C6.6 0 13.2 0 20 0 C20 5.28 20 10.56 20 16 C21.959375 15.979375 23.91875 15.95875 25.9375 15.9375 C27.95832876 15.91622812 29.98035801 15.92755947 32 16 C33 17 33 17 33.1328125 20.125 C33.13023437 21.40375 33.12765625 22.6825 33.125 24 C33.12886719 25.918125 33.12886719 25.918125 33.1328125 27.875 C33 31 33 31 32 32 C29.98035801 32.07244053 27.95832876 32.08377188 25.9375 32.0625 C24.28041016 32.04896484 24.28041016 32.04896484 22.58984375 32.03515625 C21.73519531 32.02355469 20.88054688 32.01195312 20 32 C20.09356443 36.64513161 20.19966409 41.2897438 20.31738281 45.93432617 C20.35566221 47.51432451 20.39051697 49.09440969 20.421875 50.67456055 C20.46754876 52.94611645 20.52553784 55.21707509 20.5859375 57.48828125 C20.59748871 58.19463211 20.60903992 58.90098297 20.62094116 59.6287384 C20.73071048 63.27741393 20.92142364 64.88213546 23 68 C24.96361864 68.57748803 24.96361864 68.57748803 27.125 68.6875 C28.40375 68.790625 29.6825 68.89375 31 69 C31.50266794 71.12437048 32.0020561 73.24951726 32.5 75.375 C32.7784375 76.55835938 33.056875 77.74171875 33.34375 78.9609375 C34 82 34 82 34 84 C25.45865789 86.42004693 16.80710895 87.00970491 8.5 83.3125 C3.8965152 80.69014067 1.65487326 76.96461978 0 72 C-0.08544291 70.66471193 -0.11774625 69.32556112 -0.11352539 67.98754883 C-0.11344986 67.18694534 -0.11337433 66.38634186 -0.11329651 65.56147766 C-0.10813522 64.70201035 -0.10297394 63.84254303 -0.09765625 62.95703125 C-0.0962413 62.0734343 -0.09482635 61.18983734 -0.09336853 60.27946472 C-0.08777069 57.45710872 -0.07521861 54.63483203 -0.0625 51.8125 C-0.05748472 49.89908969 -0.05292186 47.98567813 -0.04882812 46.07226562 C-0.03780197 41.38147986 -0.02053883 36.69075337 0 32 C-2.97 32 -5.94 32 -9 32 C-9.02685095 29.52076199 -9.04676547 27.0418116 -9.0625 24.5625 C-9.07506836 23.50192383 -9.07506836 23.50192383 -9.08789062 22.41992188 C-9.09653588 20.61306441 -9.05220011 18.80612397 -9 17 C-8.67 16.67 -8.34 16.34 -8 16 C-5.36 16 -2.72 16 0 16 C0 10.72 0 5.44 0 0 Z " fill="#21303A" transform="translate(735,77)"/>
<path d="M0 0 C0.84417984 -0.00335861 1.68835968 -0.00671722 2.55812073 -0.01017761 C5.35191311 -0.01968597 8.14564557 -0.02163053 10.93945312 -0.02270508 C12.87854029 -0.02591723 14.81762722 -0.02928126 16.75671387 -0.03279114 C20.8220272 -0.03878175 24.88731928 -0.04063105 28.95263672 -0.04003906 C34.16833756 -0.03993733 39.38390261 -0.05360166 44.59957123 -0.07081127 C48.60407135 -0.08191404 52.60853843 -0.08395882 56.61305237 -0.08342934 C58.5364275 -0.08461159 60.45980343 -0.08904705 62.38316345 -0.0967617 C65.06934208 -0.10652888 67.75522311 -0.10369679 70.44140625 -0.09765625 C71.23942154 -0.10327576 72.03743683 -0.10889526 72.8596344 -0.11468506 C76.68301323 -0.09277104 78.46139223 -0.02761026 81.72070312 2.14526367 C80.84570312 7.02026367 80.84570312 7.02026367 79.72070312 8.14526367 C77.04282339 8.24039311 74.39081443 8.27081646 71.71264648 8.25878906 C70.87369339 8.25893509 70.0347403 8.25908112 69.17036438 8.25923157 C66.38373268 8.25853217 63.59716696 8.25073853 60.81054688 8.24291992 C58.88383521 8.24105584 56.95712307 8.23963189 55.03041077 8.2386322 C49.94882915 8.23480626 44.86727593 8.22497533 39.78570557 8.21392822 C34.60453679 8.20371574 29.42336344 8.19913493 24.2421875 8.1940918 C14.06834687 8.18335313 3.89452736 8.1662758 -6.27929688 8.14526367 C-6.05266357 8.93586182 -5.82603027 9.72645996 -5.5925293 10.54101562 C-4.73650353 13.52848663 -3.88111204 16.51613838 -3.02612305 19.50390625 C-2.48013012 21.41118752 -1.93343323 23.31826723 -1.38671875 25.2253418 C-0.34577277 28.86387773 0.68909085 32.50407126 1.72070312 36.14526367 C2.0279834 37.22340332 2.33526367 38.30154297 2.65185547 39.41235352 C3.06298584 40.87922607 3.06298584 40.87922607 3.48242188 42.37573242 C3.72307373 43.2293335 3.96372559 44.08293457 4.21166992 44.96240234 C4.72070312 47.14526367 4.72070312 47.14526367 4.72070312 50.14526367 C26.17070313 50.14526367 47.62070313 50.14526367 69.72070312 50.14526367 C70.38070312 47.17526367 71.04070312 44.20526367 71.72070312 41.14526367 C70.93365494 41.13495621 70.14660675 41.12464874 69.33570862 41.11402893 C61.93372206 41.0162218 54.53182244 40.91373181 47.12997532 40.80592442 C43.32422908 40.75066073 39.5184752 40.69723538 35.71264648 40.64794922 C32.04270978 40.60035627 28.37286922 40.54801558 24.7030468 40.49232292 C23.29998086 40.4718763 21.89688853 40.4531671 20.49377632 40.43618965 C18.53493387 40.4121968 16.57617612 40.38156168 14.61743164 40.35058594 C13.50046402 40.33504166 12.3834964 40.31949738 11.23268127 40.30348206 C8.72070312 40.14526367 8.72070312 40.14526367 7.72070312 39.14526367 C7.6798953 37.14568003 7.67815956 35.14481113 7.72070312 33.14526367 C10.53285824 31.73918611 12.86114533 32.02575881 16.00634766 32.03173828 C16.65037537 32.03159225 17.29440308 32.03144623 17.95794678 32.03129578 C20.08983715 32.03199327 22.22164049 32.03977801 24.35351562 32.04760742 C25.83039299 32.04947218 27.30727097 32.05089581 28.78414917 32.05189514 C32.67382511 32.05571575 36.56346379 32.06554216 40.453125 32.07659912 C44.42121883 32.08682304 48.38931867 32.09139487 52.35742188 32.09643555 C60.14519929 32.10716482 67.93294599 32.12423578 75.72070312 32.14526367 C76.05070312 30.16526367 76.38070312 28.18526367 76.72070312 26.14526367 C75.8128154 26.13717682 74.90492767 26.12908997 73.9695282 26.12075806 C65.42025958 26.04286938 56.87114966 25.9555961 48.32208538 25.85773659 C43.92675124 25.80775628 39.53144133 25.76142646 35.13598633 25.72338867 C30.89540656 25.68655768 26.65502874 25.64020382 22.41462135 25.58720016 C20.79551543 25.56864455 19.1763662 25.55354091 17.55719566 25.54191971 C15.29206975 25.52507702 13.02740749 25.49604752 10.76245117 25.46411133 C9.47227585 25.45078766 8.18210052 25.43746399 6.85282898 25.42373657 C3.72070312 25.14526367 3.72070312 25.14526367 0.72070312 23.14526367 C0.47070312 20.58276367 0.47070312 20.58276367 0.72070312 18.14526367 C2.42899723 16.43696957 4.58074689 17.02554441 6.85856628 17.02084351 C7.59367935 17.02443878 8.32879242 17.02803406 9.08618164 17.03173828 C9.85685974 17.03159225 10.62753784 17.03144623 11.42156982 17.03129578 C13.98094451 17.03199507 16.54024733 17.03978822 19.09960938 17.04760742 C20.86937927 17.04947154 22.63914969 17.05089547 24.40892029 17.05189514 C29.07621678 17.05572079 33.74348236 17.06555147 38.4107666 17.07659912 C43.16967348 17.08681224 47.92858533 17.09139255 52.6875 17.09643555 C62.03191466 17.1071737 71.37630632 17.12425068 80.72070312 17.14526367 C80.72070312 17.47526367 80.72070312 17.80526367 80.72070312 18.14526367 C54.98070312 18.47526367 29.24070312 18.80526367 2.72070312 19.14526367 C2.72070312 20.46526367 2.72070312 21.78526367 2.72070312 23.14526367 C28.13070312 23.14526367 53.54070312 23.14526367 79.72070312 23.14526367 C78.72070312 30.14526367 78.72070312 30.14526367 76.72070312 34.14526367 C54.94070312 34.47526367 33.16070312 34.80526367 10.72070312 35.14526367 C10.39070313 36.13526367 10.06070313 37.12526367 9.72070312 38.14526367 C30.84070313 38.14526367 51.96070313 38.14526367 73.72070312 38.14526367 C74.72070312 41.14526367 74.72070312 41.14526367 70.72070312 52.14526367 C47.95070313 52.14526367 25.18070313 52.14526367 1.72070312 52.14526367 C1.72070312 52.80526367 1.72070312 53.46526367 1.72070312 54.14526367 C4.97364343 55.22957711 7.42036774 55.30274402 10.84448242 55.35058594 C12.73610359 55.38050377 12.73610359 55.38050377 14.66593933 55.411026 C16.04226559 55.42800901 17.41859315 55.44488786 18.79492188 55.46166992 C20.20311587 55.48224564 21.61130377 55.50324228 23.01948547 55.52464294 C26.72330793 55.57979989 30.42718554 55.62923721 34.13110352 55.67749023 C37.91167094 55.72775188 41.69215842 55.78341359 45.47265625 55.83862305 C52.88860414 55.9461266 60.30461858 56.04758881 67.72070312 56.14526367 C68.94145927 59.80753211 68.05386739 61.06937621 66.41210938 64.42651367 C62.3045442 68.6004829 56.7314153 69.34356283 51.13085938 69.39404297 C49.01459057 69.35205301 46.89860978 69.29304532 44.78320312 69.21948242 C43.66252441 69.19304153 42.5418457 69.16660065 41.38720703 69.13935852 C37.83113563 69.05205424 34.27613823 68.94274295 30.72070312 68.83276367 C28.30016788 68.76945737 25.87959447 68.70759297 23.45898438 68.6472168 C17.54567998 68.49658719 11.63310038 68.32791725 5.72070312 68.14526367 C5.72070312 68.80526367 5.72070312 69.46526367 5.72070312 70.14526367 C4.58632812 70.59901367 3.45195313 71.05276367 2.28320312 71.52026367 C-1.3265138 72.71622173 -1.3265138 72.71622173 -2.27929688 75.14526367 C-2.93929687 75.14526367 -3.59929688 75.14526367 -4.27929688 75.14526367 C-2.78451573 71.34036622 -0.58487473 69.48335533 2.72070312 67.14526367 C5.72926348 66.14241022 7.8074093 65.99773285 10.95483398 65.95581055 C12.02281723 65.93909302 13.09080048 65.92237549 14.19114685 65.90515137 C15.92087486 65.88478821 15.92087486 65.88478821 17.68554688 65.86401367 C18.87040176 65.84560425 20.05525665 65.82719482 21.27601624 65.80822754 C25.07002748 65.74940445 28.86408393 65.69662312 32.65820312 65.64526367 C37.64658051 65.57764394 42.6348134 65.50395473 47.62304688 65.42651367 C48.77417465 65.41293823 49.92530243 65.39936279 51.11131287 65.38537598 C52.71801598 65.36029968 52.71801598 65.36029968 54.35717773 65.3347168 C55.29855087 65.32218872 56.23992401 65.30966064 57.20982361 65.29675293 C60.56726042 65.14450223 60.56726042 65.14450223 63.72070312 64.14526367 C65.01730746 61.65491981 65.01730746 61.65491981 65.72070312 59.14526367 C64.57557755 59.13646431 64.57557755 59.13646431 63.40731812 59.12748718 C56.1980583 59.06948257 48.98914103 58.99736196 41.78018761 58.90954876 C38.07434659 58.86490094 34.36861409 58.8256329 30.66259766 58.79882812 C27.0832558 58.77273879 23.50433276 58.73229764 19.92525101 58.68207741 C18.56263073 58.66544652 17.19993807 58.65390874 15.83723068 58.64764977 C13.92245661 58.63796837 12.00781668 58.60817829 10.09326172 58.57763672 C9.00516205 58.56653366 7.91706238 58.5554306 6.79598999 58.54399109 C3.22372616 58.08082795 0.79578743 56.99767262 -2.27929688 55.14526367 C-3.52368164 52.88720703 -3.52368164 52.88720703 -4.22070312 50.23510742 C-4.49197021 49.25356689 -4.7632373 48.27202637 -5.04272461 47.26074219 C-5.30641846 46.21200928 -5.5701123 45.16327637 -5.84179688 44.08276367 C-6.13062744 43.00889404 -6.41945801 41.93502441 -6.71704102 40.82861328 C-7.30420015 38.64321185 -7.88261515 36.45544185 -8.45214844 34.26538086 C-9.19840177 31.4504111 -9.99694062 28.66089475 -10.83398438 25.87182617 C-11.06915771 25.07784424 -11.30433105 24.2838623 -11.54663086 23.46582031 C-11.97717247 22.01515387 -12.413687 20.56623938 -12.85766602 19.11962891 C-14.24766376 14.27207828 -15.20681116 9.16573676 -14.27929688 4.14526367 C-10.54562565 -0.6160737 -5.5641828 -0.00315985 0 0 Z " fill="#34A036" transform="translate(66.279296875,64.854736328125)"/>
<path d="M0 0 C0 5.94 0 11.88 0 18 C-1.69125 17.938125 -3.3825 17.87625 -5.125 17.8125 C-9.8847777 17.79412248 -12.88217686 18.46595499 -17 21 C-17.66 21 -18.32 21 -19 21 C-21.1698313 26.32179677 -21.34048545 31.11890966 -21.4140625 36.7734375 C-21.43342865 37.6971817 -21.4527948 38.6209259 -21.4727478 39.57266235 C-21.53225705 42.50668264 -21.57881395 45.44074276 -21.625 48.375 C-21.66320617 50.37111032 -21.70225942 52.36720463 -21.7421875 54.36328125 C-21.83952057 59.24210146 -21.91931635 64.12076268 -22 69 C-28.6 69 -35.2 69 -42 69 C-42 46.23 -42 23.46 -42 0 C-35.73 0 -29.46 0 -23 0 C-22.34 1.98 -21.68 3.96 -21 6 C-20.154375 5.21625 -19.30875 4.4325 -18.4375 3.625 C-12.36864775 -1.3778946 -7.82313278 -0.9778916 0 0 Z " fill="#21313B" transform="translate(723,93)"/>
<path d="M0 0 C1 1 1 1 1.09765625 4.81640625 C1.09098089 6.39846682 1.07901875 7.98051159 1.0625 9.5625 C1.05798828 10.36880859 1.05347656 11.17511719 1.04882812 12.00585938 C1.03700518 14.00393756 1.01906914 16.00197783 1 18 C0.29875 17.95359375 -0.4025 17.9071875 -1.125 17.859375 C-7.46460756 17.61819428 -12.9002157 17.85882177 -18 22 C-19.69824572 24.85132955 -20.25662715 26.99197592 -20.30297852 30.29370117 C-20.31962051 31.13104294 -20.33626251 31.9683847 -20.35340881 32.83110046 C-20.36182297 33.726017 -20.37023712 34.62093353 -20.37890625 35.54296875 C-20.39590073 36.46717117 -20.4128952 37.3913736 -20.43040466 38.34358215 C-20.48348539 41.29148566 -20.52382583 44.23937502 -20.5625 47.1875 C-20.60638154 50.14626669 -20.65300984 53.10492266 -20.70530701 56.06355286 C-20.73734734 57.90419704 -20.76421119 59.74493965 -20.78553772 61.58573914 C-20.88823264 67.88823264 -20.88823264 67.88823264 -22 69 C-28.27 69 -34.54 69 -41 69 C-41 46.23 -41 23.46 -41 0 C-34.73 0 -28.46 0 -22 0 C-21.67 2.31 -21.34 4.62 -21 7 C-20.360625 6.236875 -19.72125 5.47375 -19.0625 4.6875 C-13.78321415 -0.56187488 -7.0258307 -1.75645768 0 0 Z " fill="#20303A" transform="translate(318,93)"/>
<path d="M0 0 C0.66 0 1.32 0 2 0 C1.46884894 4.51478398 -0.36620292 7.34666857 -3 11 C-2.525625 11.598125 -2.05125 12.19625 -1.5625 12.8125 C1.57273091 17.20182327 1.52249618 21.80160576 1 27 C-1.09090909 32.09090909 -1.09090909 32.09090909 -3 34 C-2.28344238 34.14099121 -1.56688477 34.28198242 -0.82861328 34.42724609 C2.40754932 35.06859564 5.64124157 35.72164132 8.875 36.375 C10.56689453 36.70757812 10.56689453 36.70757812 12.29296875 37.046875 C13.90751953 37.37558594 13.90751953 37.37558594 15.5546875 37.7109375 C17.04718018 38.00943604 17.04718018 38.00943604 18.56982422 38.31396484 C21 39 21 39 23 41 C22.44444444 45.55555556 22.44444444 45.55555556 21 47 C14.86446798 46.95149777 8.85887804 45.82192732 2.875 44.5625 C-11.05184152 41.6715341 -24.8638712 40.61888084 -39.0625 40.6875 C-40.18980026 40.68923721 -40.18980026 40.68923721 -41.33987427 40.69100952 C-57.93993469 40.74121375 -74.73486803 41.65790978 -90.73046875 46.44921875 C-93.24275047 47.0589119 -95.42394406 47.16461843 -98 47 C-99 46 -99 46 -99.375 43.625 C-99 41 -99 41 -97.08984375 39.47265625 C-92.90727224 37.47919297 -88.71894692 36.68094285 -84.1875 35.8125 C-82.86202148 35.54663086 -82.86202148 35.54663086 -81.50976562 35.27539062 C-79.34138494 34.84171449 -77.17166113 34.41687996 -75 34 C-75.48855469 33.11699219 -75.97710937 32.23398438 -76.48046875 31.32421875 C-77.95334304 28.10206959 -78.38260101 26.29058853 -78.3125 22.8125 C-78.30863281 21.97332031 -78.30476563 21.13414062 -78.30078125 20.26953125 C-78 18 -78 18 -76 15 C-76 19.95 -76 24.9 -76 30 C-74.35 30.33 -72.7 30.66 -71 31 C-70.67 30.34 -70.34 29.68 -70 29 C-70.66 29 -71.32 29 -72 29 C-72.78734859 19.98923284 -72.78734859 19.98923284 -69.5625 15.9375 C-68.716875 15.298125 -67.87125 14.65875 -67 14 C-66.67 13.67 -66.34 13.34 -66 13 C-61.76206697 12.475631 -58.17991662 12.21338892 -54.5625 14.625 C-52.78292182 17.32995883 -51.84966873 19.88454799 -51 23 C-49.85480988 20.70961976 -49.92648088 19.46931463 -50 16.9375 C-50 13 -50 13 -49 12 C-45.88272557 11.74982758 -42.7511343 11.81477852 -39.625 11.8125 C-38.7484375 11.80025391 -37.871875 11.78800781 -36.96875 11.77539062 C-36.12570313 11.77345703 -35.28265625 11.77152344 -34.4140625 11.76953125 C-33.6401416 11.76542236 -32.8662207 11.76131348 -32.06884766 11.75708008 C-30 12 -30 12 -27 14 C-27.33 14.639375 -27.66 15.27875 -28 15.9375 C-29.79638394 21.43892582 -29.7479628 26.22358834 -27.5 31.5625 C-27.005 32.366875 -26.51 33.17125 -26 34 C-27.32 34 -28.64 34 -30 34 C-30 35.32 -30 36.64 -30 38 C-28.80890625 38.08636719 -27.6178125 38.17273438 -26.390625 38.26171875 C-11.06785169 39.49195843 3.91002011 42.11803287 19 45 C17.23992343 41.26571125 17.23992343 41.26571125 13.87109375 39.1887207 C12.66646484 39.05856567 12.66646484 39.05856567 11.4375 38.92578125 C10.55835938 38.81556641 9.67921875 38.70535156 8.7734375 38.59179688 C7.85820312 38.49962891 6.94296875 38.40746094 6 38.3125 C4.18673356 38.10691134 2.37417691 37.89493571 0.5625 37.67578125 C-0.24058594 37.59239502 -1.04367188 37.50900879 -1.87109375 37.4230957 C-4 37 -4 37 -7 35 C-6.175 34.05125 -5.35 33.1025 -4.5 32.125 C-0.62740557 26.74275012 -1.49818504 21.13634349 -2.5 14.875 C-2.665 14.25625 -2.83 13.6375 -3 13 C-3.99 12.67 -4.98 12.34 -6 12 C-5.41800054 8.62440315 -4.37247717 7.37247717 -2 5 C-0.80972016 2.40084462 -0.80972016 2.40084462 0 0 Z M-67.875 16.0625 C-70.24108907 18.88526062 -70.24108907 18.88526062 -70.625 22.5 C-69.82883761 26.95850936 -68.69186542 28.40783917 -65 31 C-61.03523594 31.62601538 -59.00237979 31.65946039 -55.625 29.4375 C-53.44773715 26.17160572 -53 23.92016134 -53 20 C-54.76641172 17.19810554 -56.03049822 15.48475089 -59 14 C-63.0130324 13.46492901 -64.53928033 13.66948372 -67.875 16.0625 Z M-47 14 C-46.67 15.32 -46.34 16.64 -46 18 C-45.91016313 19.47702386 -45.8698709 20.95775548 -45.875 22.4375 C-45.87242188 23.17871094 -45.86984375 23.91992188 -45.8671875 24.68359375 C-46 27 -46 27 -47 32 C-41.39 32 -35.78 32 -30 32 C-30.33 30.68 -30.66 29.36 -31 28 C-31.09070579 26.3352819 -31.13008286 24.66717967 -31.125 23 C-31.12757812 22.154375 -31.13015625 21.30875 -31.1328125 20.4375 C-31 18 -31 18 -30 14 C-35.61 14 -41.22 14 -47 14 Z " fill="#0EAB0F" transform="translate(138,125)"/>
<path d="M0 0 C0.84447189 -0.00350464 1.68894379 -0.00700928 2.55900574 -0.01062012 C5.34199311 -0.0194015 8.12472502 -0.01360204 10.90771484 -0.00683594 C12.84394377 -0.00818337 14.78017237 -0.01012455 16.71640015 -0.01263428 C20.76978789 -0.01558046 24.82308737 -0.0113032 28.87646484 -0.00195312 C34.07642937 0.00945634 39.27618778 0.00286927 44.47614479 -0.00909805 C48.47207194 -0.0163173 52.46795002 -0.01402869 56.46387863 -0.00884247 C58.38166707 -0.00750694 60.29945993 -0.0091503 62.21724319 -0.01380157 C64.89364725 -0.01886951 67.56971482 -0.01115352 70.24609375 0 C71.04096695 -0.00404846 71.83584015 -0.00809692 72.65480042 -0.01226807 C76.46912227 0.01724292 78.24202604 0.09103819 81.49365234 2.25878906 C80.61865234 7.13378906 80.61865234 7.13378906 79.49365234 8.25878906 C76.81577261 8.3539185 74.16376365 8.38434185 71.4855957 8.37231445 C70.64664261 8.37246048 69.80768951 8.37260651 68.9433136 8.37275696 C66.1566819 8.37205756 63.37011618 8.36426392 60.58349609 8.35644531 C58.65678443 8.35458123 56.73007229 8.35315728 54.80335999 8.35215759 C49.72177837 8.34833165 44.64022515 8.33850072 39.55865479 8.32745361 C34.377486 8.31724113 29.19631265 8.31266032 24.01513672 8.30761719 C13.84129609 8.29687852 3.66747657 8.27980119 -6.50634766 8.25878906 C-6.29986099 8.97225494 -6.09337433 9.68572083 -5.88063049 10.42080688 C-4.9382632 13.69051349 -4.00544794 16.96287311 -3.07275391 20.23535156 C-2.74778931 21.35756104 -2.42282471 22.47977051 -2.0880127 23.63598633 C0.10569567 31.36700499 2.22342835 39.14163143 1.49365234 47.25878906 C0.83365234 48.24878906 0.17365234 49.23878906 -0.50634766 50.25878906 C-1.16634766 49.92878906 -1.82634766 49.59878906 -2.50634766 49.25878906 C-3.2226225 46.8391043 -3.82814126 44.46626419 -4.38134766 42.00878906 C-6.40759949 29.75170467 -6.40759949 29.75170467 -11.50634766 19.25878906 C-11.90673066 16.40350299 -12.25817035 13.5614242 -12.56884766 10.69628906 C-12.65972656 9.88998047 -12.75060547 9.08367187 -12.84423828 8.25292969 C-13.06882215 6.25531529 -13.28808002 4.25710346 -13.50634766 2.25878906 C-9.0511545 0.03198683 -4.87374902 -0.02495014 0 0 Z " fill="#17AC19" transform="translate(66.50634765625,64.7412109375)"/>
<path d="M0 0 C0.66 0 1.32 0 2 0 C1.46884894 4.51478398 -0.36620292 7.34666857 -3 11 C-2.525625 11.598125 -2.05125 12.19625 -1.5625 12.8125 C1.57273091 17.20182327 1.52249618 21.80160576 1 27 C-1.09090909 32.09090909 -1.09090909 32.09090909 -3 34 C-2.28344238 34.14099121 -1.56688477 34.28198242 -0.82861328 34.42724609 C2.40754932 35.06859564 5.64124157 35.72164132 8.875 36.375 C10.56689453 36.70757812 10.56689453 36.70757812 12.29296875 37.046875 C13.90751953 37.37558594 13.90751953 37.37558594 15.5546875 37.7109375 C17.04718018 38.00943604 17.04718018 38.00943604 18.56982422 38.31396484 C21 39 21 39 23 41 C22.44444444 45.55555556 22.44444444 45.55555556 21 47 C14.86446798 46.95149777 8.85887804 45.82192732 2.875 44.5625 C-11.05184152 41.6715341 -24.8638712 40.61888084 -39.0625 40.6875 C-40.18980026 40.68923721 -40.18980026 40.68923721 -41.33987427 40.69100952 C-57.93993469 40.74121375 -74.73486803 41.65790978 -90.73046875 46.44921875 C-93.24275047 47.0589119 -95.42394406 47.16461843 -98 47 C-99 46 -99 46 -99.375 43.625 C-99 41 -99 41 -97.08984375 39.47265625 C-92.90727224 37.47919297 -88.71894692 36.68094285 -84.1875 35.8125 C-82.86202148 35.54663086 -82.86202148 35.54663086 -81.50976562 35.27539062 C-79.34138494 34.84171449 -77.17166113 34.41687996 -75 34 C-75.48855469 33.11699219 -75.97710937 32.23398438 -76.48046875 31.32421875 C-77.95334304 28.10206959 -78.38260101 26.29058853 -78.3125 22.8125 C-78.30863281 21.97332031 -78.30476563 21.13414062 -78.30078125 20.26953125 C-78 18 -78 18 -76 15 C-76 19.95 -76 24.9 -76 30 C-74.02 30.33 -72.04 30.66 -70 31 C-69.67 32.98 -69.34 34.96 -69 37 C-72.59255456 39.26525608 -75.44383483 39.14833402 -79.625 39 C-85.69612599 38.8983912 -91.13078876 39.48536484 -97 41 C-97 41.99 -97 42.98 -97 44 C-94.8535247 43.88655624 -92.70779408 43.75893655 -90.5625 43.625 C-89.36753906 43.55539063 -88.17257813 43.48578125 -86.94140625 43.4140625 C-85.48541016 43.20910156 -85.48541016 43.20910156 -84 43 C-83.67 42.34 -83.34 41.68 -83 41 C-80.23803711 40.49755859 -80.23803711 40.49755859 -76.52734375 40.1484375 C-75.8617746 40.08436203 -75.19620544 40.02028656 -74.51046753 39.95426941 C-72.32040577 39.74866318 -70.1294053 39.55986805 -67.9375 39.375 C-67.1873764 39.3102951 -66.43725281 39.24559021 -65.66439819 39.17892456 C-36.92131919 36.73253382 -9.1753095 38.47519148 19 45 C18.20122498 42.40841928 18.20122498 42.40841928 16 40 C12.72926287 38.95672109 9.40652261 38.65555122 6 38.3125 C4.18673356 38.10691134 2.37417691 37.89493571 0.5625 37.67578125 C-0.24058594 37.59239502 -1.04367188 37.50900879 -1.87109375 37.4230957 C-4 37 -4 37 -7 35 C-6.175 34.05125 -5.35 33.1025 -4.5 32.125 C-0.62740557 26.74275012 -1.49818504 21.13634349 -2.5 14.875 C-2.665 14.25625 -2.83 13.6375 -3 13 C-3.99 12.67 -4.98 12.34 -6 12 C-5.41800054 8.62440315 -4.37247717 7.37247717 -2 5 C-0.80972016 2.40084462 -0.80972016 2.40084462 0 0 Z " fill="#27A529" transform="translate(138,125)"/>
<path d="M0 0 C0.70254913 -0.00014603 1.40509827 -0.00029205 2.12893677 -0.0004425 C4.45561795 0.00025525 6.78221949 0.0080412 9.10888672 0.01586914 C10.72028561 0.01773381 12.33168506 0.01915748 13.94308472 0.02015686 C18.18786174 0.02397819 22.43260464 0.03380521 26.67736816 0.04486084 C31.0074009 0.05508321 35.33743915 0.05965625 39.66748047 0.06469727 C48.16619406 0.07542781 56.6648799 0.09249964 65.16357422 0.11352539 C65.65857422 2.58852539 65.65857422 2.58852539 66.16357422 5.11352539 C41.41357422 5.11352539 16.66357422 5.11352539 -8.83642578 5.11352539 C-8.83642578 3.79352539 -8.83642578 2.47352539 -8.83642578 1.11352539 C-5.89395851 -0.35770825 -3.28457556 -0.00572226 0 0 Z " fill="#0DAB0F" transform="translate(77.83642578125,82.886474609375)"/>
<path d="M0 0 C29.04 0 58.08 0 88 0 C87.34 1.32 86.68 2.64 86 4 C75.32580302 4.02312328 64.65161194 4.04091501 53.97739506 4.05181217 C49.02146078 4.05704103 44.06554358 4.06413874 39.10961914 4.07543945 C34.33101164 4.08626822 29.55242062 4.09227681 24.7738018 4.09487724 C22.94646381 4.09673151 21.11912676 4.10035216 19.29179573 4.10573006 C16.74146671 4.11294036 14.19120663 4.11399095 11.64086914 4.11352539 C10.87770386 4.11712067 10.11453857 4.12071594 9.32824707 4.12442017 C4.11405216 4.11405216 4.11405216 4.11405216 3 3 C2.01 3.33 1.02 3.66 0 4 C0 2.68 0 1.36 0 0 Z " fill="#0CAB0C" transform="translate(60,67)"/>
<path d="M0 0 C21.12 0 42.24 0 64 0 C63 3 63 3 61 4 C59.02893455 4.0913666 57.05472084 4.11751968 55.08154297 4.11352539 C53.84040741 4.11344986 52.59927185 4.11337433 51.32052612 4.11329651 C49.96107951 4.1081895 48.60163331 4.1029735 47.2421875 4.09765625 C45.85499116 4.09579142 44.46779416 4.09436782 43.08059692 4.09336853 C39.42765488 4.08954848 35.77475252 4.07972255 32.12182617 4.06866455 C28.39502499 4.05843944 24.66821741 4.05386855 20.94140625 4.04882812 C13.62758606 4.03809983 6.31379859 4.02102954 -1 4 C-0.67 2.68 -0.34 1.36 0 0 Z " fill="#0CAB0B" transform="translate(77,99)"/>
<path d="M0 0 C0.73511307 0.00359528 1.47022614 0.00719055 2.22761536 0.01089478 C2.99829346 0.01074875 3.76897156 0.01060272 4.56300354 0.01045227 C7.12237823 0.01115157 9.68168104 0.01894471 12.24104309 0.02676392 C14.01081299 0.02862804 15.7805834 0.03005197 17.550354 0.03105164 C22.2176505 0.03487728 26.88491607 0.04470796 31.55220032 0.05575562 C36.31110719 0.06596873 41.07001905 0.07054904 45.82893372 0.07559204 C55.17334837 0.08633019 64.51774004 0.10340717 73.86213684 0.12442017 C73.86213684 0.45442017 73.86213684 0.78442017 73.86213684 1.12442017 C48.12213684 1.45442017 22.38213684 1.78442017 -4.13786316 2.12442017 C-4.13786316 3.44442017 -4.13786316 4.76442017 -4.13786316 6.12442017 C21.27213684 6.12442017 46.68213684 6.12442017 72.86213684 6.12442017 C72.86213684 7.77442017 72.86213684 9.42442017 72.86213684 11.12442017 C71.87213684 10.46442017 70.88213684 9.80442017 69.86213684 9.12442017 C66.62601312 8.80746402 66.62601312 8.80746402 62.86799622 8.83731079 C62.16036636 8.83047775 61.45273651 8.82364471 60.72366333 8.81660461 C59.18825454 8.80302226 57.65280058 8.79396534 56.11734009 8.78889465 C53.68815827 8.7806097 51.25935314 8.76010961 48.83027649 8.73635864 C43.67428573 8.68812413 38.51825757 8.65518618 33.36213684 8.62442017 C27.38771774 8.58877145 21.41348316 8.54689444 15.4392395 8.48847961 C13.0444954 8.4683892 10.64989205 8.46008754 8.25508118 8.45217896 C6.78880804 8.43920818 5.32253962 8.42568811 3.85627747 8.41152954 C2.57515076 8.40423828 1.29402405 8.39694702 -0.02592468 8.38943481 C-3.13786316 8.12442017 -3.13786316 8.12442017 -6.13786316 6.12442017 C-6.38786316 3.56192017 -6.38786316 3.56192017 -6.13786316 1.12442017 C-4.42956906 -0.58387393 -2.27781939 0.0047009 0 0 Z " fill="#239E29" transform="translate(73.13786315917969,81.87557983398438)"/>
<path d="M0 0 C0.87011719 0.00902344 1.74023438 0.01804688 2.63671875 0.02734375 C4.7579342 0.05065381 6.87900562 0.08651421 9 0.125 C9.042721 1.79111905 9.04063832 3.45882885 9 5.125 C7.43490703 6.69009297 5.87434226 6.25251906 3.703125 6.265625 C2.38828125 6.29462891 2.38828125 6.29462891 1.046875 6.32421875 C-0.80186849 6.35778532 -2.65095367 6.37627976 -4.5 6.37890625 C-9.08674148 6.50631574 -11.30890196 6.58429635 -15.015625 9.484375 C-16.39855302 11.3246493 -17.72309275 13.20963913 -19 15.125 C-20.32 14.795 -21.64 14.465 -23 14.125 C-23.94074296 11.61259665 -24.18954695 10.54533424 -23.06640625 8.0546875 C-22.57011719 7.37664063 -22.07382813 6.69859375 -21.5625 6 C-21.08941406 5.31679688 -20.61632812 4.63359375 -20.12890625 3.9296875 C-14.61317738 -0.74603129 -6.83674191 -0.1365248 0 0 Z " fill="#1EAA1F" transform="translate(176,54.875)"/>
<path d="M0 0 C1.2686792 -0.00262848 1.2686792 -0.00262848 2.56298828 -0.00531006 C5.36159307 -0.00971514 8.16013479 -0.00679555 10.95874023 -0.00341797 C12.9002229 -0.00409133 14.84170549 -0.00506163 16.78318787 -0.00631714 C20.85269981 -0.00779224 24.92218982 -0.00564533 28.99169922 -0.00097656 C34.21642837 0.0047244 39.4411062 0.0014382 44.66583347 -0.00454903 C48.67457977 -0.00815646 52.68331382 -0.00701528 56.69206047 -0.00442123 C58.6190485 -0.00375267 60.54603763 -0.00457795 62.47302437 -0.00690079 C65.16173386 -0.00943069 67.85035929 -0.00558208 70.5390625 0 C71.74147835 -0.00303635 71.74147835 -0.00303635 72.96818542 -0.00613403 C78.47630414 0.01512961 78.47630414 0.01512961 80.70483398 1.12939453 C80.70483398 1.78939453 80.70483398 2.44939453 80.70483398 3.12939453 C79.02020554 3.12606361 79.02020554 3.12606361 77.30154419 3.12266541 C66.7359764 3.10242512 56.17041254 3.0874181 45.60482979 3.07758236 C40.17249877 3.0723558 34.74018336 3.06526223 29.30786133 3.05395508 C24.06889568 3.04311819 18.82994507 3.03711598 13.59096909 3.03451729 C11.58861936 3.03266449 9.5862705 3.02904665 7.58392715 3.02366447 C4.78713427 3.01644344 1.99040417 3.01540404 -0.80639648 3.01586914 C-1.6407724 3.01227386 -2.47514832 3.00867859 -3.33480835 3.00497437 C-7.44697346 2.90722762 -7.44697346 2.90722762 -11.29516602 4.12939453 C-11.29516602 3.13939453 -11.29516602 2.14939453 -11.29516602 1.12939453 C-7.50167766 -0.13510159 -3.95169274 -0.0100041 0 0 Z " fill="#359A36" transform="translate(66.295166015625,64.87060546875)"/>
<path d="M0 0 C0.8765625 -0.01224609 1.753125 -0.02449219 2.65625 -0.03710938 C3.49929687 -0.03904297 4.34234375 -0.04097656 5.2109375 -0.04296875 C5.9848584 -0.04707764 6.7587793 -0.05118652 7.55615234 -0.05541992 C9.625 0.1875 9.625 0.1875 12.625 2.1875 C12.295 2.826875 11.965 3.46625 11.625 4.125 C9.31961278 11.18524837 10.29809895 15.53369789 13.625 22.1875 C5.375 22.1875 -2.875 22.1875 -11.375 22.1875 C-10.88 20.7025 -10.88 20.7025 -10.375 19.1875 C-9.715 19.1875 -9.055 19.1875 -8.375 19.1875 C-7.97695155 9.98057538 -7.97695155 9.98057538 -10.375 1.1875 C-8.14264991 -1.04485009 -2.99806334 0.00218518 0 0 Z M-7.375 2.1875 C-7.045 3.5075 -6.715 4.8275 -6.375 6.1875 C-6.28516313 7.66452386 -6.2448709 9.14525548 -6.25 10.625 C-6.24742188 11.36621094 -6.24484375 12.10742188 -6.2421875 12.87109375 C-6.375 15.1875 -6.375 15.1875 -7.375 20.1875 C-1.765 20.1875 3.845 20.1875 9.625 20.1875 C9.295 18.8675 8.965 17.5475 8.625 16.1875 C8.53429421 14.5227819 8.49491714 12.85467967 8.5 11.1875 C8.49742188 10.341875 8.49484375 9.49625 8.4921875 8.625 C8.625 6.1875 8.625 6.1875 9.625 2.1875 C4.015 2.1875 -1.595 2.1875 -7.375 2.1875 Z " fill="#2FAA32" transform="translate(98.375,136.8125)"/>
<path d="M0 0 C3.63 0.66 7.26 1.32 11 2 C11 2.99 11 3.98 11 5 C10.01 5 9.02 5 8 5 C7.67 5.99 7.34 6.98 7 8 C1.98475102 9.09908648 -2.93752151 10.05131638 -8.0625 10.4375 C-12.34965569 10.80150379 -15.98949476 11.89665057 -20.015625 13.3671875 C-22.40466711 14.12904739 -24.50924457 14.24104085 -27 14 C-27.33 13.34 -27.66 12.68 -28 12 C-27 10 -27 10 -25.20703125 9.1484375 C-18.64168628 7.02782036 -12.78576192 6.79821227 -5.90625 7.08984375 C-2.87148904 7.32810244 -2.87148904 7.32810244 -1 5 C-0.34 5.33 0.32 5.66 1 6 C0.67 4.02 0.34 2.04 0 0 Z " fill="#0BAB0B" transform="translate(68,156)"/>
<path d="M0 0 C0.99 0.495 0.99 0.495 2 1 C2 6.94 2 12.88 2 19 C13.88 19 25.76 19 38 19 C38 24.61 38 30.22 38 36 C36.02 36 34.04 36 32 36 C32 35.34 32 34.68 32 34 C32.99 34 33.98 34 35 34 C35 30.04 35 26.08 35 22 C34.04633545 21.97494385 33.0926709 21.9498877 32.11010742 21.92407227 C28.57090893 21.82987929 25.03190125 21.72968769 21.49291992 21.62768555 C19.96138982 21.58438167 18.42981285 21.54270333 16.89819336 21.50268555 C14.69630818 21.44487268 12.49465789 21.38121031 10.29296875 21.31640625 C9.60849167 21.29969376 8.92401459 21.28298126 8.21879578 21.26576233 C5.22879896 21.1726445 2.85937689 20.95312563 0 20 C0 13.4 0 6.8 0 0 Z " fill="#2B363F" transform="translate(229,89)"/>
<path d="M0 0 C0.93328125 0.00193359 1.8665625 0.00386719 2.828125 0.00585938 C3.80007812 0.01810547 4.77203125 0.03035156 5.7734375 0.04296875 C7.24296875 0.04393555 7.24296875 0.04393555 8.7421875 0.04492188 C16.00817726 0.09020851 16.00817726 0.09020851 17.1484375 1.23046875 C17.3359375 3.66796875 17.3359375 3.66796875 17.1484375 6.23046875 C14.71165659 8.66724966 14.05754427 8.47908499 10.71875 8.50390625 C9.40197266 8.53484375 9.40197266 8.53484375 8.05859375 8.56640625 C6.20972739 8.59233705 4.36073735 8.61063254 2.51171875 8.62109375 C-2.60462622 8.72547407 -2.60462622 8.72547407 -7.25 10.62890625 C-9.73777419 14.67002237 -11.13446766 18.98473606 -12.6015625 23.48046875 C-12.91738281 24.41632813 -13.23320312 25.3521875 -13.55859375 26.31640625 C-14.33354409 28.61777393 -15.09740742 30.92222006 -15.8515625 33.23046875 C-16.1815625 33.23046875 -16.5115625 33.23046875 -16.8515625 33.23046875 C-15.88800897 23.82044597 -15.88800897 23.82044597 -14.8515625 19.23046875 C-16.1715625 19.56046875 -17.4915625 19.89046875 -18.8515625 20.23046875 C-18.9753125 20.80796875 -19.0990625 21.38546875 -19.2265625 21.98046875 C-19.85805074 24.25382642 -20.74014441 26.15582165 -21.8515625 28.23046875 C-22.8515625 26.23046875 -22.8515625 26.23046875 -21.85546875 22.97265625 C-21.38266266 21.68076355 -20.90184281 20.39178237 -20.4140625 19.10546875 C-20.04958008 18.11740234 -20.04958008 18.11740234 -19.67773438 17.109375 C-19.07577929 15.48055537 -18.46453838 13.855173 -17.8515625 12.23046875 C-17.5215625 13.22046875 -17.1915625 14.21046875 -16.8515625 15.23046875 C-15.5315625 15.23046875 -14.2115625 15.23046875 -12.8515625 15.23046875 C-11.45042634 13.27736987 -10.11816783 11.27338057 -8.8515625 9.23046875 C-5.72038683 7.1430183 -4.78210026 6.95392879 -1.18359375 6.81640625 C-0.29091797 6.77773438 0.60175781 6.7390625 1.52148438 6.69921875 C2.91463867 6.6528125 2.91463867 6.6528125 4.3359375 6.60546875 C5.74649414 6.54746094 5.74649414 6.54746094 7.18554688 6.48828125 C9.5063146 6.39403688 11.82707498 6.3084285 14.1484375 6.23046875 C14.4784375 4.58046875 14.8084375 2.93046875 15.1484375 1.23046875 C7.5584375 1.56046875 -0.0315625 1.89046875 -7.8515625 2.23046875 C-4.61651892 0.07377303 -3.72965287 -0.01786702 0 0 Z " fill="#2EA12D" transform="translate(169.8515625,53.76953125)"/>
<path d="M0 0 C0.95003906 -0.00773438 1.90007812 -0.01546875 2.87890625 -0.0234375 C5.82438819 0.43524824 6.65143036 1.04803861 8.4375 3.375 C11.04837249 7.94402685 10.63950288 11.40672143 9.4375 16.375 C5.92640433 19.57629311 2.10095313 20.12517215 -2.5625 20.375 C-5.566306 19.6240485 -7.11878665 18.78811243 -9.375 16.6875 C-11.32629951 12.88760096 -10.77259566 9.26586098 -10.3125 5.125 C-8.36148852 0.57263988 -4.53653333 -0.03703293 0 0 Z M-6.4375 3.4375 C-8.80358907 6.26026062 -8.80358907 6.26026062 -9.1875 9.875 C-8.39133761 14.33350936 -7.25436542 15.78283917 -3.5625 18.375 C-0.0625 19.20833333 -0.0625 19.20833333 3.4375 18.375 C6.82427089 15.92499553 8.22448584 14.51107554 9 10.375 C8.31392343 6.71592496 7.01015686 5.02332324 4.4375 2.375 C0.25904661 0.28577331 -2.70372077 0.75891925 -6.4375 3.4375 Z " fill="#20A720" transform="translate(122.5625,137.625)"/>
<path d="M0 0 C3.30980596 0.03677562 4.36865561 0.08358608 7.125 2.0625 C7.640625 2.805 8.15625 3.5475 8.6875 4.3125 C9.120625 4.93125 9.55375 5.55 10 6.1875 C10.99648003 9.26752919 10.5722784 11.21577558 9.6875 14.3125 C8.1875 17.125 8.1875 17.125 5.6875 19.3125 C0.70886382 20.74560275 -3.68109769 20.85230127 -8.3125 18.3125 C-8.3125 17.6525 -8.3125 16.9925 -8.3125 16.3125 C-8.9725 16.3125 -9.6325 16.3125 -10.3125 16.3125 C-11.09984859 7.30173284 -11.09984859 7.30173284 -7.875 3.25 C-7.029375 2.610625 -6.18375 1.97125 -5.3125 1.3125 C-3.74308802 -0.25691198 -2.17115006 0.0675153 0 0 Z M-6.1875 3.375 C-8.55358907 6.19776062 -8.55358907 6.19776062 -8.9375 9.8125 C-8.14133761 14.27100936 -7.00436542 15.72033917 -3.3125 18.3125 C0.65226406 18.93851538 2.68512021 18.97196039 6.0625 16.75 C8.23976285 13.48410572 8.6875 11.23266134 8.6875 7.3125 C6.92108828 4.51060554 5.65700178 2.79725089 2.6875 1.3125 C-1.3255324 0.77742901 -2.85178033 0.98198372 -6.1875 3.375 Z " fill="#26A729" transform="translate(76.3125,137.6875)"/>
<path d="M0 0 C0.99 0 1.98 0 3 0 C3.28875 1.134375 3.5775 2.26875 3.875 3.4375 C4.24625 4.613125 4.6175 5.78875 5 7 C5.66 7.33 6.32 7.66 7 8 C7.484375 10.6171875 7.484375 10.6171875 7.75 13.875 C7.84796875 14.94492188 7.9459375 16.01484375 8.046875 17.1171875 C8 20 8 20 6 23 C5.34 22.67 4.68 22.34 4 22 C3.21745485 19.41317151 2.54588571 16.87785615 1.9375 14.25 C1.76412109 13.53328125 1.59074219 12.8165625 1.41210938 12.078125 C0.92681665 10.05514231 0.46010069 8.02883991 0 6 C-0.33837891 4.53820312 -0.33837891 4.53820312 -0.68359375 3.046875 C-0.78800781 2.37140625 -0.89242187 1.6959375 -1 1 C-0.67 0.67 -0.34 0.34 0 0 Z " fill="#0EAC0E" transform="translate(60,92)"/>
<path d="M0 0 C0.7425 0.2475 1.485 0.495 2.25 0.75 C2.91 2.73 3.57 4.71 4.25 6.75 C2.625 8.8125 2.625 8.8125 0.25 10.75 C-3 10.5 -3 10.5 -5.75 9.75 C-6.5 7 -6.5 7 -6.75 3.75 C-4.66788764 0.62683146 -3.81124618 -0.34647693 0 0 Z " fill="#2BA02B" transform="translate(77.75,142.25)"/>
<path d="M0 0 C0.7425 0.2475 1.485 0.495 2.25 0.75 C2.91 2.73 3.57 4.71 4.25 6.75 C2.625 8.8125 2.625 8.8125 0.25 10.75 C-3 10.5 -3 10.5 -5.75 9.75 C-6.5 7 -6.5 7 -6.75 3.75 C-4.66788764 0.62683146 -3.81124618 -0.34647693 0 0 Z " fill="#2BA92A" transform="translate(123.75,142.25)"/>
<path d="M0 0 C2.625 0.375 2.625 0.375 5 1 C4.67 1.66 4.34 2.32 4 3 C2.68 3 1.36 3 0 3 C0 15.21 0 27.42 0 40 C-0.66 39.67 -1.32 39.34 -2 39 C-2.04935824 33.76726669 -2.08569949 28.53466824 -2.10986328 23.30175781 C-2.11993431 21.52080933 -2.13359185 19.73987743 -2.15087891 17.95898438 C-2.17507913 15.40230217 -2.18647184 12.84583815 -2.1953125 10.2890625 C-2.20563507 9.49005524 -2.21595764 8.69104797 -2.22659302 7.86782837 C-2.22699226 5.9104278 -2.12241069 3.95356923 -2 2 C-1.34 1.34 -0.68 0.68 0 0 Z " fill="#2D3940" transform="translate(231,122)"/>
<path d="M0 0 C-1.56069006 3.83078469 -4.06814114 6.14143762 -7 9 C-7.99 10.485 -7.99 10.485 -9 12 C-10.32 11.67 -11.64 11.34 -13 11 C-13.33 9.68 -13.66 8.36 -14 7 C-13.38125 6.9175 -12.7625 6.835 -12.125 6.75 C-9.83911206 6.19416524 -9.83911206 6.19416524 -8.8125 4.0625 C-8.544375 3.381875 -8.27625 2.70125 -8 2 C-6.14210462 -1.71579076 -3.44525918 -1.06921837 0 0 Z " fill="#0DAC0E" transform="translate(166,58)"/>
<path d="M0 0 C0.66 0 1.32 0 2 0 C3.47905238 2.95810476 3.12190903 5.9547155 3.09765625 9.1953125 C3.0962413 9.90275604 3.09482635 10.61019958 3.09336853 11.33908081 C3.087766 13.60109669 3.07521318 15.86301398 3.0625 18.125 C3.05748532 19.65755065 3.05292236 21.19010286 3.04882812 22.72265625 C3.03779577 26.48180888 3.02052952 30.24088772 3 34 C2.01 34 1.02 34 0 34 C0 22.78 0 11.56 0 0 Z " fill="#293842" transform="translate(752,108)"/>
<path d="M0 0 C1.18613892 0.00785522 1.18613892 0.00785522 2.39624023 0.01586914 C3.67724609 0.02070313 3.67724609 0.02070313 4.98413086 0.02563477 C5.88196289 0.03401367 6.77979492 0.04239258 7.70483398 0.05102539 C8.6065332 0.05553711 9.50823242 0.06004883 10.43725586 0.06469727 C12.67234712 0.07652315 14.90730835 0.09300319 17.14233398 0.11352539 C17.14233398 0.44352539 17.14233398 0.77352539 17.14233398 1.11352539 C16.23870117 1.17411133 15.33506836 1.23469727 14.40405273 1.29711914 C12.63481445 1.42280273 12.63481445 1.42280273 10.82983398 1.55102539 C9.65807617 1.63223633 8.48631836 1.71344727 7.27905273 1.79711914 C4.11642441 2.0002625 4.11642441 2.0002625 1.14233398 3.11352539 C1.47233398 4.10352539 1.80233398 5.09352539 2.14233398 6.11352539 C2.47185113 11.20165775 2.1679723 16.11353861 1.14233398 21.11352539 C-0.17766602 21.11352539 -1.49766602 21.11352539 -2.85766602 21.11352539 C-2.85766602 20.45352539 -2.85766602 19.79352539 -2.85766602 19.11352539 C-2.19766602 19.11352539 -1.53766602 19.11352539 -0.85766602 19.11352539 C-0.45961756 9.90660077 -0.45961756 9.90660077 -2.85766602 1.11352539 C-1.85766602 0.11352539 -1.85766602 0.11352539 0 0 Z " fill="#28A829" transform="translate(90.857666015625,136.886474609375)"/>
<path d="M0 0 C0.66 0.33 1.32 0.66 2 1 C2 11.89 2 22.78 2 34 C1.01 33.67 0.02 33.34 -1 33 C-0.83628906 32.12214844 -0.67257812 31.24429688 -0.50390625 30.33984375 C0.33755619 24.44960667 0.10459524 18.49792833 0.0625 12.5625 C0.05798828 11.35400391 0.05347656 10.14550781 0.04882812 8.90039062 C0.03710145 5.93354211 0.02068896 2.9667973 0 0 Z " fill="#2D3942" transform="translate(699,128)"/>
<path d="M0 0 C0.66 0 1.32 0 2 0 C3.00427892 3.45710552 4.0026944 6.91587697 5 10.375 C5.28617187 11.35984375 5.57234375 12.3446875 5.8671875 13.359375 C6.13789062 14.30039063 6.40859375 15.24140625 6.6875 16.2109375 C6.93886719 17.08024902 7.19023438 17.94956055 7.44921875 18.84521484 C8 21 8 21 8 23 C7.01 22.67 6.02 22.34 5 22 C4.67 19.69 4.34 17.38 4 15 C2.68 15.33 1.36 15.66 0 16 C-0.33 15.34 -0.66 14.68 -1 14 C-0.34 13.01 0.32 12.02 1 11 C1.02477359 8.24612373 1.02477359 8.24612373 0.625 5.3125 C0.51414063 4.31863281 0.40328125 3.32476562 0.2890625 2.30078125 C0.19367187 1.54152344 0.09828125 0.78226562 0 0 Z " fill="#15AC14" transform="translate(59,77)"/>
<path d="M0 0 C11.68658189 0.8623109 11.68658189 0.8623109 15 3 C15.9375 5.5 15.9375 5.5 16 8 C14 10 14 10 11 10.3125 C10.01 10.209375 9.02 10.10625 8 10 C7.34 9.01 6.68 8.02 6 7 C8.97 7.495 8.97 7.495 12 8 C11.1386077 5.38987933 11.1386077 5.38987933 9 3 C6.01122299 2.2475065 3.07454047 2.07090135 0 2 C0 1.34 0 0.68 0 0 Z " fill="#249224" transform="translate(145,162)"/>
<path d="M0 0 C0.33 0 0.66 0 1 0 C1.53469802 1.72492978 2.05219175 3.455198 2.5625 5.1875 C2.85253906 6.15042969 3.14257812 7.11335938 3.44140625 8.10546875 C4.02461026 11.12752588 3.81178385 13.05929955 3 16 C2.34 16 1.68 16 1 16 C1 16.66 1 17.32 1 18 C1.99 18.33 2.98 18.66 4 19 C2 20 2 20 -0.0625 19.375 C-2 18 -2 18 -2.75 15.375 C-2.8325 14.59125 -2.915 13.8075 -3 13 C-2.34 13 -1.68 13 -1 13 C0.00496852 9.98509443 0.10335303 7.95818308 0.0625 4.8125 C0.05347656 3.91144531 0.04445313 3.01039062 0.03515625 2.08203125 C0.02355469 1.39496094 0.01195313 0.70789063 0 0 Z " fill="#14AB17" transform="translate(67,101)"/>
<path d="M0 0 C0.66 0 1.32 0 2 0 C3.125 6.625 3.125 6.625 2 10 C3.83333333 13.16666667 3.83333333 13.16666667 7 15 C7 15.99 7 16.98 7 18 C7.66 18.33 8.32 18.66 9 19 C9 19.66 9 20.32 9 21 C5.19510255 19.50521886 3.33809165 17.30557786 1 14 C-0.04976964 10.85069107 -0.10131595 8.61185544 -0.0625 5.3125 C-0.05347656 4.31863281 -0.04445313 3.32476562 -0.03515625 2.30078125 C-0.02355469 1.54152344 -0.01195312 0.78226562 0 0 Z " fill="#2B363F" transform="translate(388,109)"/>
<path d="M0 0 C0.66 0 1.32 0 2 0 C1.1875 1.9375 1.1875 1.9375 0 4 C-2.97870377 4.99290126 -4.59182885 5.05524548 -7.66796875 4.87890625 C-9.00698242 4.80639648 -9.00698242 4.80639648 -10.37304688 4.73242188 C-11.30181641 4.67634766 -12.23058594 4.62027344 -13.1875 4.5625 C-14.12787109 4.51029297 -15.06824219 4.45808594 -16.03710938 4.40429688 C-18.35841501 4.27468082 -20.67928409 4.13971819 -23 4 C-23 3.34 -23 2.68 -23 2 C-15.41 2 -7.82 2 0 2 C0 1.34 0 0.68 0 0 Z " fill="#2A353E" transform="translate(363,118)"/>
<path d="M0 0 C4.95 0 9.9 0 15 0 C15 1.32 15 2.64 15 4 C12.03 4 9.06 4 6 4 C6 3.34 6 2.68 6 2 C3.69 2 1.38 2 -1 2 C-0.67 1.34 -0.34 0.68 0 0 Z " fill="#0AAC0B" transform="translate(170,56)"/>
<path d="M0 0 C5.28 0 10.56 0 16 0 C15.34 1.98 14.68 3.96 14 6 C13.73004677 7.95079406 13.51871703 9.9108672 13.375 11.875 C13.30023438 12.84179688 13.22546875 13.80859375 13.1484375 14.8046875 C13.09945312 15.52914062 13.05046875 16.25359375 13 17 C11 15 11 15 10.76953125 12.72265625 C10.79080078 11.40587891 10.79080078 11.40587891 10.8125 10.0625 C10.81894531 9.18722656 10.82539062 8.31195313 10.83203125 7.41015625 C11 5 11 5 12 2 C8.04 1.67 4.08 1.34 0 1 C0 0.67 0 0.34 0 0 Z " fill="#379D39" transform="translate(95,138)"/>
<path d="M0 0 C1.18613892 0.00785522 1.18613892 0.00785522 2.39624023 0.01586914 C3.67724609 0.02070312 3.67724609 0.02070312 4.98413086 0.02563477 C5.88196289 0.03401367 6.77979492 0.04239258 7.70483398 0.05102539 C8.6065332 0.05553711 9.50823242 0.06004883 10.43725586 0.06469727 C12.67234712 0.07652315 14.90730835 0.09300319 17.14233398 0.11352539 C17.14233398 0.77352539 17.14233398 1.43352539 17.14233398 2.11352539 C17.80233398 2.44352539 18.46233398 2.77352539 19.14233398 3.11352539 C11.55233398 3.11352539 3.96233398 3.11352539 -3.85766602 3.11352539 C-2.37342552 0.1450444 -2.37342552 0.1450444 0 0 Z " fill="#2A353D" transform="translate(240.857666015625,121.886474609375)"/>
<path d="M0 0 C1.65 0 3.3 0 5 0 C7.88611001 5.54133123 8.63168149 8.8811944 7 15 C4.4375 17 4.4375 17 2 18 C2 17.01 2 16.02 2 15 C2.66 15 3.32 15 4 15 C5.35900907 9.41275333 5.35900907 9.41275333 3.953125 4.06640625 C2.43842307 2.23522874 2.43842307 2.23522874 0 0 Z " fill="#2DA52F" transform="translate(125,139)"/>
<path d="M0 0 C6.27 0 12.54 0 19 0 C19 0.33 19 0.66 19 1 C13.39 1 7.78 1 2 1 C2.33 3.64 2.66 6.28 3 9 C2.0625 12.5 2.0625 12.5 1 15 C0.67 15 0.34 15 0 15 C0 10.05 0 5.1 0 0 Z " fill="#202930" transform="translate(277,93)"/>
<path d="M0 0 C1.32 0 2.64 0 4 0 C4 2.31 4 4.62 4 7 C2.35 7 0.7 7 -1 7 C-1.625 4.625 -1.625 4.625 -2 2 C-1.34 1.34 -0.68 0.68 0 0 Z " fill="#14AD16" transform="translate(75,144)"/>
<path d="M0 0 C0.33 0 0.66 0 1 0 C1 4.95 1 9.9 1 15 C1.99 15.33 2.98 15.66 4 16 C3.67 17.32 3.34 18.64 3 20 C-0.97417879 14.28711799 -1.7374201 9.91482452 -1 3 C-0.67 2.01 -0.34 1.02 0 0 Z " fill="#31A436" transform="translate(61,140)"/>
<path d="M0 0 C2.97922593 -0.02683987 5.95821295 -0.04676037 8.9375 -0.0625 C9.78763672 -0.07087891 10.63777344 -0.07925781 11.51367188 -0.08789062 C12.32255859 -0.09111328 13.13144531 -0.09433594 13.96484375 -0.09765625 C14.7137085 -0.10289307 15.46257324 -0.10812988 16.23413086 -0.11352539 C18 0 18 0 19 1 C19.04080783 2.99958364 19.04254356 5.00045254 19 7 C17.62437146 5.71034824 16.29233607 4.37310707 15 3 C15 2.34 15 1.68 15 1 C10.05 1 5.1 1 0 1 C0 0.67 0 0.34 0 0 Z " fill="#2D3036" transform="translate(682,93)"/>
<path d="M0 0 C0.33 0 0.66 0 1 0 C1 4.95 1 9.9 1 15 C0.01 15.495 0.01 15.495 -1 16 C-2.46145816 10.96608857 -2.37511642 4.75023285 0 0 Z " fill="#2B3842" transform="translate(754,78)"/>
<path d="M0 0 C2.0625 0.4375 2.0625 0.4375 4 1 C4.33 2.32 4.66 3.64 5 5 C2.525 4.01 2.525 4.01 0 3 C0 3.66 0 4.32 0 5 C0.66 5 1.32 5 2 5 C2 5.66 2 6.32 2 7 C0.68 6.67 -0.64 6.34 -2 6 C-1.125 1.125 -1.125 1.125 0 0 Z " fill="#12A712" transform="translate(121,144)"/>
<path d="M0 0 C0 0.99 0 1.98 0 3 C-1.7015625 3.680625 -1.7015625 3.680625 -3.4375 4.375 C-7.04721692 5.57095806 -7.04721692 5.57095806 -8 8 C-8.66 8 -9.32 8 -10 8 C-8.18341255 3.37595922 -5.13109685 0 0 0 Z " fill="#31A434" transform="translate(72,132)"/>
<path d="M0 0 C0.33 0 0.66 0 1 0 C1.53122363 1.76774419 2.04964073 3.53934083 2.5625 5.3125 C2.85253906 6.29863281 3.14257812 7.28476563 3.44140625 8.30078125 C4 11 4 11 3 14 C1 13 1 13 0 10 C-0.06802967 8.27204648 -0.08495645 6.54164635 -0.0625 4.8125 C-0.05347656 3.91144531 -0.04445313 3.01039062 -0.03515625 2.08203125 C-0.02355469 1.39496094 -0.01195313 0.70789063 0 0 Z " fill="#29A726" transform="translate(67,101)"/>
<path d="M0 0 C2.625 0.375 2.625 0.375 5 1 C5.66 2.98 6.32 4.96 7 7 C6.34 7.66 5.68 8.32 5 9 C4.67 7.02 4.34 5.04 4 3 C1.03 2.505 1.03 2.505 -2 2 C-1.34 1.34 -0.68 0.68 0 0 Z " fill="#309A34" transform="translate(121,142)"/>
<path d="M0 0 C0.99 0 1.98 0 3 0 C3 2.64 3 5.28 3 8 C2.34 8 1.68 8 1 8 C-0.35439668 5.29120665 -0.06501451 2.99066732 0 0 Z " fill="#06AD08" transform="translate(86,140)"/>
<path d="M0 0 C0.66 0.33 1.32 0.66 2 1 C-0.52771621 4.08943092 -3.1444775 5.11644276 -7 6 C-7.99 5.34 -8.98 4.68 -10 4 C-9.0925 3.71125 -8.185 3.4225 -7.25 3.125 C-4.10623356 2.12884377 -4.10623356 2.12884377 -1.75 0.8125 C-0.88375 0.4103125 -0.88375 0.4103125 0 0 Z " fill="#24AA21" transform="translate(130,128)"/>
<path d="M0 0 C3.44216672 2.6598561 3.99504674 5.90288286 5 10 C4.01 10 3.02 10 2 10 C0.68373308 6.38026598 0 3.90432869 0 0 Z " fill="#263840" transform="translate(544,123)"/>
<path d="M0 0 C0.66 0 1.32 0 2 0 C1.125 4.75 1.125 4.75 0 7 C-1.32 6.67 -2.64 6.34 -4 6 C-2.7260411 3.96166576 -1.38938077 1.96147874 0 0 Z " fill="#05AE04" transform="translate(85,154)"/>
<path d="M0 0 C0.66 0 1.32 0 2 0 C2.66 2.97 3.32 5.94 4 9 C2.68 8.34 1.36 7.68 0 7 C0 4.69 0 2.38 0 0 Z " fill="#29AE2C" transform="translate(112,145)"/>
<path d="M0 0 C0.66 0 1.32 0 2 0 C2.38909985 1.45463481 2.76088029 2.91391207 3.125 4.375 C3.33382812 5.18710938 3.54265625 5.99921875 3.7578125 6.8359375 C3.83773437 7.55007812 3.91765625 8.26421875 4 9 C3.34 9.66 2.68 10.32 2 11 C1.34 7.37 0.68 3.74 0 0 Z " fill="#2CAE29" transform="translate(59,77)"/>
<path d="M0 0 C2 2 2 2 2 6 C0.35 5.67 -1.3 5.34 -3 5 C-2.625 3.0625 -2.625 3.0625 -2 1 C-1.34 0.67 -0.68 0.34 0 0 Z " fill="#14B018" transform="translate(67,156)"/>
<path d="M0 0 C2.12508244 3.18762365 2.5020163 5.26512223 3 9 C2.01 8.67 1.02 8.34 0 8 C-0.38063221 5.6739143 -0.71269945 3.33944736 -1 1 C-0.67 0.67 -0.34 0.34 0 0 Z " fill="#2AA12B" transform="translate(64,91)"/>
<path d="M0 0 C-0.33 0.66 -0.66 1.32 -1 2 C-4.0625 2.625 -4.0625 2.625 -7 3 C-7.33 2.01 -7.66 1.02 -8 0 C-4.94736336 -0.98120464 -3.05263664 -0.98120464 0 0 Z " fill="#202831" transform="translate(636,122)"/>
<path d="M0 0 C1.32 0.33 2.64 0.66 4 1 C4.33 2.32 4.66 3.64 5 5 C3.68 4.67 2.36 4.34 1 4 C1.33 3.34 1.66 2.68 2 2 C1.34 2 0.68 2 0 2 C0 1.34 0 0.68 0 0 Z " fill="#22B21F" transform="translate(121,147)"/>
<path d="M0 0 C0.33 0 0.66 0 1 0 C1.625 2.8125 1.625 2.8125 2 6 C1.01 7.485 1.01 7.485 0 9 C-0.66 8.67 -1.32 8.34 -2 8 C-1.33333333 5.33333333 -0.66666667 2.66666667 0 0 Z " fill="#08AB0A" transform="translate(66,106)"/>
</svg>
