<?xml version="1.0" encoding="UTF-8"?>
<svg version="1.1" xmlns="http://www.w3.org/2000/svg" width="364" height="364">
<path d="M0 0 C10.17622553 3.68950837 13.98140507 9.58920488 18.49414062 19.1875 C20.08216973 22.8213684 21.00661723 26.26007301 21.71289062 30.16015625 C21.92300781 31.30806641 22.133125 32.45597656 22.34960938 33.63867188 C22.56230469 34.83041016 22.775 36.02214844 22.99414062 37.25 C23.31318359 38.99700195 23.31318359 38.99700195 23.63867188 40.77929688 C24.64507053 46.32066368 25.61074377 51.86695334 26.53503418 57.42259216 C26.71475517 58.50240073 26.89447617 59.5822093 27.07964325 60.69473934 C27.21642738 61.51735036 27.35321152 62.33996138 27.49414062 63.1875 C28.66290678 63.18657821 29.83167294 63.18565641 31.03585625 63.18470669 C58.8495311 63.16299667 86.66320529 63.14653347 114.47688686 63.13643467 C117.90858214 63.13518413 121.3402774 63.13388979 124.77197266 63.13256836 C125.45509247 63.13230605 126.13821228 63.13204374 126.84203269 63.13177348 C137.86823597 63.12743536 148.89443397 63.11955813 159.92063414 63.1103472 C171.25474535 63.10095881 182.58885268 63.09550819 193.92296803 63.09341151 C200.28062972 63.0921129 206.63827949 63.08908117 212.99593735 63.08176994 C218.99258608 63.07493042 224.9892181 63.07289902 230.98587036 63.07439232 C233.17461361 63.07411953 235.36335747 63.07216184 237.55209732 63.06829453 C247.58130165 63.05145847 257.60722507 63.08368174 267.62893677 63.50709534 C268.35688568 63.52913306 269.08483459 63.55117079 269.83484256 63.57387632 C275.34277709 63.85872814 278.62479708 65.31815646 282.49414062 69.1875 C284.23511511 76.42095097 283.12747133 83.32965991 281.68164062 90.5 C281.41383789 91.94342773 281.41383789 91.94342773 281.140625 93.41601562 C280.27682609 97.92211465 279.21044111 101.92887659 277.49414062 106.1875 C277.13205803 107.61141122 276.80968824 109.04605808 276.52929688 110.48828125 C276.37066162 111.29297852 276.21202637 112.09767578 276.04858398 112.92675781 C275.88624268 113.77592773 275.72390137 114.62509766 275.55664062 115.5 C275.38334229 116.38139648 275.21004395 117.26279297 275.03149414 118.17089844 C274.21093257 122.36714969 273.41915555 126.56707605 272.67382812 130.77734375 C270.62511067 142.29574744 270.62511067 142.29574744 268.93164062 146.25 C266.87377662 151.06945352 266.64387428 156.24299224 266.02929688 161.40234375 C264.17683293 174.50480769 264.17683293 174.50480769 261.49414062 177.1875 C260.86949912 180.27307853 260.3016333 183.36120797 259.77539062 186.46484375 C258.75272381 192.00247573 257.19779149 195.6148992 253.05664062 199.4375 C248.43667138 202.59260095 243.99090244 202.32881044 238.53424072 202.30775452 C237.72636321 202.30860894 236.91848569 202.30946337 236.08612704 202.31034368 C233.37608045 202.31199225 230.66609559 202.30648727 227.95605469 202.30102539 C226.01460268 202.30074336 224.07315056 202.30090157 222.13169861 202.3014679 C216.85730098 202.30175524 211.58292602 202.29586855 206.30853367 202.28889394 C200.79787371 202.28265005 195.28721325 202.28205578 189.77655029 202.28086853 C179.33959292 202.27775828 168.902646 202.26954899 158.46569324 202.25951904 C146.58432854 202.24834843 134.70296335 202.24284506 122.82159472 202.23782361 C98.37910422 202.22736614 73.93662301 202.20977259 49.49414062 202.1875 C49.59732685 204.07495587 49.71634188 205.96154965 49.84179688 207.84765625 C49.90633057 208.89832275 49.97086426 209.94898926 50.03735352 211.03149414 C50.89298904 216.94319932 53.4099805 221.8616971 58.20993614 225.4814024 C66.97606743 230.71863551 76.30691035 229.85321876 86.17236328 229.75512695 C88.16396041 229.753715 90.15556014 229.75451134 92.14715576 229.75733948 C97.53091983 229.75876927 102.91412261 229.72945006 108.29775667 229.69446969 C113.93247383 229.66313336 119.567205 229.66026971 125.20199585 229.65434265 C135.86199256 229.63882561 146.52173173 229.59782597 157.18161523 229.5475952 C169.32184575 229.49163523 181.46208881 229.46419848 193.60241628 229.43911803 C218.56647182 229.38690832 243.53028089 229.29799592 268.49414062 229.1875 C268.16414063 235.4575 267.83414062 241.7275 267.49414062 248.1875 C261.19164452 249.01405687 255.03796288 249.24546989 248.69433594 249.20507812 C240.25808575 249.17864293 231.82733097 249.24783569 223.39211655 249.37262726 C219.26455239 249.43326694 215.13691079 249.48825811 211.00927734 249.54394531 C209.70264098 249.56168566 209.70264098 249.56168566 208.36960793 249.57978439 C175.95862834 250.01672591 143.54586889 250.33545334 111.13195801 250.41967773 C107.30694191 250.4299779 103.48206118 250.44734694 99.65710449 250.47094727 C95.14780617 250.49829973 90.63870862 250.5106578 86.12932968 250.51157379 C84.4800949 250.51422724 82.83085879 250.5218867 81.18167496 250.5351181 C68.12746187 250.63409192 53.66901147 249.74232076 43.53710938 240.37890625 C39.49414062 235.82464871 39.49414062 235.82464871 39.49414062 233.1875 C38.83414063 233.1875 38.17414063 233.1875 37.49414062 233.1875 C34.63733818 229.35269312 33.65310643 225.39279409 32.77539062 220.78125 C32.63237518 220.06847397 32.48935974 219.35569794 32.3420105 218.62132263 C31.88232054 216.31195916 31.43760196 214.00003009 30.99414062 211.6875 C30.68004247 210.08533014 30.36575109 208.48319816 30.05126953 206.88110352 C28.2959525 197.85009213 26.73782294 188.82376044 25.55444336 179.69824219 C24.5087588 171.7862392 22.95834422 163.99154485 21.40869141 156.16503906 C19.28896811 145.36584317 17.55475228 134.51574471 15.89550781 123.63745117 C15.48643572 121.14046913 14.99077025 118.66829318 14.49414062 116.1875 C14.35052291 114.77259951 14.22626558 113.35563035 14.11914062 111.9375 C13.61312607 106.52394748 12.63838264 101.21615408 11.65307617 95.87475586 C10.49831909 89.49934409 9.71227047 83.11653922 9.02148438 76.67578125 C8.61211329 73.24077965 8.61211329 73.24077965 7.49023438 70.3125 C6.17416128 66.18364324 5.94398432 62.17917896 5.61914062 57.875 C4.79144436 48.3600001 2.92219102 39.40650383 0.49414062 30.1875 C0.32841553 29.45772949 0.16269043 28.72795898 -0.00805664 27.97607422 C-0.73417077 23.80255194 -0.73417077 23.80255194 -3.44335938 20.8125 C-4.46429688 20.503125 -4.46429688 20.503125 -5.50585938 20.1875 C-6.49585938 19.5275 -7.48585937 18.8675 -8.50585938 18.1875 C-11.04261251 17.90825139 -13.40424057 17.75917825 -15.94335938 17.75 C-17.01263672 17.74528687 -17.01263672 17.74528687 -18.10351562 17.74047852 C-24.01637136 17.87227268 -28.54106267 19.45271864 -33.88867188 21.99609375 C-38.82870951 24.24491685 -42.70006593 24.81131955 -47.94335938 23 C-50.50585938 21.1875 -50.50585938 21.1875 -51.38085938 19.5 C-51.42210937 18.736875 -51.46335937 17.97375 -51.50585938 17.1875 C-51.65023437 15.888125 -51.79460938 14.58875 -51.94335938 13.25 C-51.86051811 9.81527356 -51.573296 9.26992254 -49.25585938 6.4375 C-44.58685808 3.14369149 -38.93209727 1.75653264 -33.50585938 0.1875 C-32.75949219 -0.0290625 -32.013125 -0.245625 -31.24414062 -0.46875 C-29.66534538 -0.91888869 -28.08569455 -1.36602484 -26.50585938 -1.8125 C-18.81133498 -5.6597622 -7.75477436 -2.57760205 0 0 Z " fill="#50953D" transform="translate(61.505859375,23.8125)"/>
<path d="M0 0 C4.69054998 3.26120551 7.48649545 6.690848 9.60546875 11.98828125 C10.88091412 19.25831987 10.58825485 26.51388357 8.23046875 33.55078125 C5.91796875 36.42578125 5.91796875 36.42578125 3.23046875 38.55078125 C2.08578125 39.60265625 2.08578125 39.60265625 0.91796875 40.67578125 C-5.81602179 45.37391418 -12.62740963 46.48791632 -20.76953125 45.55078125 C-23.6015625 44.53125 -23.6015625 44.53125 -25.76953125 43.55078125 C-25.76953125 42.89078125 -25.76953125 42.23078125 -25.76953125 41.55078125 C-26.34703125 41.28265625 -26.92453125 41.01453125 -27.51953125 40.73828125 C-31.41121237 38.68433844 -33.36159837 37.5910101 -35.01953125 33.36328125 C-35.26703125 32.43515625 -35.51453125 31.50703125 -35.76953125 30.55078125 C-36.42953125 30.55078125 -37.08953125 30.55078125 -37.76953125 30.55078125 C-39.78319805 24.50978085 -39.96047345 17.61261534 -37.640625 11.6484375 C-33.6233529 4.67327836 -28.81040651 -0.37408271 -21.03125 -2.9375 C-13.31128652 -4.6841584 -6.8961641 -3.8921117 0 0 Z " fill="#51953F" transform="translate(298.76953125,289.44921875)"/>
<path d="M0 0 C5.57984161 3.71305636 8.74864796 7.80757273 10.125 14.4140625 C10.91166399 22.08883311 11.04880422 29.15341896 6.125 35.4140625 C1.59960049 40.49156075 -2.74770345 44.29939715 -9.6171875 45.3046875 C-17.64754636 45.69370142 -24.67540563 44.07830331 -31.125 39.0390625 C-36.488031 33.91980564 -38.50589722 28.40037255 -39.1875 21.0390625 C-38.44826088 12.46388873 -35.44458287 6.08721106 -28.875 0.4140625 C-19.88088785 -5.71436324 -9.24363783 -5.30324093 0 0 Z " fill="#50953D" transform="translate(162.875,289.5859375)"/>
<path d="M0 0 C9.24 0 18.48 0 28 0 C27.67 6.27 27.34 12.54 27 19 C20.49605324 19.72650158 14.1436698 20.14271483 7.60302734 20.11352539 C6.28410492 20.11374443 6.28410492 20.11374443 4.9385376 20.1139679 C2.07097794 20.11327869 -0.79651438 20.10553342 -3.6640625 20.09765625 C-5.66759201 20.09578854 -7.67112197 20.0943663 -9.6746521 20.09336853 C-14.91885667 20.08957117 -20.16303304 20.07976496 -25.40722656 20.06866455 C-30.77017841 20.05839031 -36.13313487 20.05385808 -41.49609375 20.04882812 C-51.99740814 20.03813992 -62.49870172 20.02109732 -73 20 C-73 19.67 -73 19.34 -73 19 C-63.16757036 18.05459267 -53.40129796 17.81738094 -43.53113937 17.73963928 C-40.84082198 17.71829285 -38.15060989 17.69131156 -35.46035767 17.66296387 C-28.79373594 17.59378364 -22.12704033 17.53354947 -15.46032715 17.47393799 C-9.7926187 17.4230091 -4.124974 17.36825697 1.5426445 17.30812073 C4.19219827 17.28159405 6.84175845 17.26076872 9.49136353 17.2401123 C11.10703834 17.22351712 12.72271034 17.20664597 14.33837891 17.18945312 C15.44170563 17.1831765 15.44170563 17.1831765 16.56732178 17.17677307 C19.64586152 17.13873608 22.05613245 16.98128918 25 16 C25 11.71 25 7.42 25 3 C16.75 2.67 8.5 2.34 0 2 C0 1.34 0 0.68 0 0 Z " fill="#7FA473" transform="translate(302,253)"/>
<path d="M0 0 C0.66 0 1.32 0 2 0 C2.625 1.875 2.625 1.875 3 4 C2.34 4.66 1.68 5.32 1 6 C0.41649495 8.45709375 0.41649495 8.45709375 1 11 C3.40858714 12.8624438 3.40858714 12.8624438 6 14 C6.33 13.34 6.66 12.68 7 12 C7.78375 12.185625 8.5675 12.37125 9.375 12.5625 C11.97089775 13.25962266 11.97089775 13.25962266 14 12 C16.3329866 11.95977609 18.66706666 11.95679753 21 12 C16.1869075 15.20872833 11.57865697 17.44291901 5.6875 16.8125 C2 16 2 16 -1 14 C-2.58374348 10.25660631 -2.19239207 5.97610268 -2 2 C-1.34 1.34 -0.68 0.68 0 0 Z " fill="#68995A" transform="translate(12,31)"/>
<path d="M0 0 C0.33 0 0.66 0 1 0 C1.80925539 14.74643149 1.80925539 14.74643149 -3 21 C-5.75 23.5 -5.75 23.5 -8 25 C-8.66 24.34 -9.32 23.68 -10 23 C-9.625 19.875 -9.625 19.875 -9 17 C-7 17 -5 17 -3 17 C-2.67 15.02 -2.34 13.04 -2 11 C-1.34 11 -0.68 11 0 11 C0 7.37 0 3.74 0 0 Z " fill="#579545" transform="translate(172,304)"/>
<path d="M0 0 C1.06863281 0.01804687 2.13726562 0.03609375 3.23828125 0.0546875 C4.04652344 0.07789063 4.85476562 0.10109375 5.6875 0.125 C6.0175 1.115 6.3475 2.105 6.6875 3.125 C2.7275 2.795 -1.2325 2.465 -5.3125 2.125 C-5.6425 3.115 -5.9725 4.105 -6.3125 5.125 C-8.9525 4.795 -11.5925 4.465 -14.3125 4.125 C-9.43042809 0.87028539 -5.87432889 -0.12910613 0 0 Z " fill="#6D995E" transform="translate(149.3125,285.875)"/>
<path d="M0 0 C-1.43536858 2.87073716 -3.61972895 3.3517292 -6.5234375 4.40234375 C-10.97655598 5.47699222 -15.45192683 5.22573157 -20 5 C-20 4.34 -20 3.68 -20 3 C-19.39671875 2.95101563 -18.7934375 2.90203125 -18.171875 2.8515625 C-17.37265625 2.77679688 -16.5734375 2.70203125 -15.75 2.625 C-14.56664062 2.52058594 -14.56664062 2.52058594 -13.359375 2.4140625 C-10.97855097 2.11211267 -10.97855097 2.11211267 -8.9375 0.96875 C-6.00158064 -0.49920968 -3.22229576 -0.12393445 0 0 Z " fill="#7FA972" transform="translate(298,330)"/>
<path d="M0 0 C0.33 0.99 0.66 1.98 1 3 C1.66 3 2.32 3 3 3 C2.67 6.3 2.34 9.6 2 13 C2.66 13 3.32 13 4 13 C4.33 15.64 4.66 18.28 5 21 C4.01 21.33 3.02 21.66 2 22 C0.57374434 14.58856436 -0.30071865 7.55137932 0 0 Z " fill="#6EA360" transform="translate(67,74)"/>
<path d="M0 0 C1.84658203 -0.03867187 1.84658203 -0.03867187 3.73046875 -0.078125 C5.25607422 0.08429687 5.25607422 0.08429687 6.8125 0.25 C7.4725 1.24 8.1325 2.23 8.8125 3.25 C6.93304688 3.23259766 6.93304688 3.23259766 5.015625 3.21484375 C3.36458483 3.20546284 1.71354304 3.19636296 0.0625 3.1875 C-0.7625 3.17912109 -1.5875 3.17074219 -2.4375 3.16210938 C-3.23671875 3.15888672 -4.0359375 3.15566406 -4.859375 3.15234375 C-5.5925293 3.14710693 -6.32568359 3.14187012 -7.08105469 3.13647461 C-9.2336849 3.2524891 -11.1189135 3.65926729 -13.1875 4.25 C-12.8575 3.26 -12.5275 2.27 -12.1875 1.25 C-8.09567672 0.28355031 -4.2001317 0.0531102 0 0 Z " fill="#669055" transform="translate(46.1875,38.75)"/>
<path d="M0 0 C0.66 0.66 1.32 1.32 2 2 C1.34 3.32 0.68 4.64 0 6 C-1.32 5.67 -2.64 5.34 -4 5 C-4.33 5.66 -4.66 6.32 -5 7 C-6.65 6.67 -8.3 6.34 -10 6 C-10 4.68 -10 3.36 -10 2 C-7.03 2 -4.06 2 -1 2 C-0.67 1.34 -0.34 0.68 0 0 Z " fill="#4C933A" transform="translate(144,288)"/>
<path d="M0 0 C2.02907927 2.44888878 3.87891524 4.78415325 5.4375 7.5625 C7.24627641 10.38419119 9.30804277 12.03559878 12 14 C8.83166132 14.35203763 7.45154844 14.34530175 4.875 12.375 C1.65100266 8.29127004 0 5.25037472 0 0 Z " fill="#66995B" transform="translate(111,238)"/>
<path d="M0 0 C0.99 0.495 0.99 0.495 2 1 C2.6328125 3.94140625 2.6328125 3.94140625 3.125 7.5625 C3.29257813 8.76003906 3.46015625 9.95757812 3.6328125 11.19140625 C3.75398438 12.11824219 3.87515625 13.04507813 4 14 C4.99 14.33 5.98 14.66 7 15 C7 15.66 7 16.32 7 17 C6.34 17 5.68 17 5 17 C5 18.65 5 20.3 5 22 C2.8612937 18.36419928 2.14844006 14.52962932 1.375 10.4375 C1.2409375 9.76525391 1.106875 9.09300781 0.96875 8.40039062 C0.41360143 5.54817325 0 2.91296494 0 0 Z " fill="#70A063" transform="translate(90,218)"/>
<path d="M0 0 C0.66 0.66 1.32 1.32 2 2 C-3.24882694 5.17692157 -8.01488629 5.65697965 -14 6 C-11.52440814 2.28661222 -10.23882558 2.22173268 -6 1.1875 C-4.9275 0.91292969 -3.855 0.63835937 -2.75 0.35546875 C-1.8425 0.23816406 -0.935 0.12085938 0 0 Z " fill="#82AF78" transform="translate(161,329)"/>
<path d="M0 0 C0.33 0 0.66 0 1 0 C1 5.33333333 1 10.66666667 1 16 C0.34 16.33 -0.32 16.66 -1 17 C-3.00366625 10.98900126 -1.90288558 5.82758708 0 0 Z M2 12 C2.99 12.495 2.99 12.495 4 13 C3.01 13.495 3.01 13.495 2 14 C2 13.34 2 12.68 2 12 Z " fill="#79A66C" transform="translate(126,300)"/>
<path d="M0 0 C0.33 0 0.66 0 1 0 C1.4485551 8.17367067 1.40744316 13.97563746 -3 21 C-4.31223496 17.06329512 -3.24296256 14.87511856 -2 11 C-1.34 11 -0.68 11 0 11 C0 7.37 0 3.74 0 0 Z " fill="#88A675" transform="translate(172,304)"/>
<path d="M0 0 C2.4375 1.0625 2.4375 1.0625 5 3 C5.8125 6.6875 5.8125 6.6875 6 10 C4.35 9.67 2.7 9.34 1 9 C1.66 7.35 2.32 5.7 3 4 C2.34 4 1.68 4 1 4 C0.67 2.68 0.34 1.36 0 0 Z " fill="#6B9E5F" transform="translate(165,293)"/>
<path d="M0 0 C0 0.66 0 1.32 0 2 C0.66 2 1.32 2 2 2 C2.33 3.65 2.66 5.3 3 7 C-0.91402949 5.73058503 -2.79072873 4.48832306 -5 1 C-3 0 -3 0 0 0 Z " fill="#6D9B5F" transform="translate(135,325)"/>
<path d="M0 0 C0.99 0 1.98 0 3 0 C2.54663921 4.87362847 1.2910841 7.39042389 -2 11 C-2.33 9.35 -2.66 7.7 -3 6 C-2.34 6 -1.68 6 -1 6 C-0.67 4.02 -0.34 2.04 0 0 Z " fill="#70A35E" transform="translate(318,210)"/>
<path d="M0 0 C0.66 0 1.32 0 2 0 C2.8125 1.6875 2.8125 1.6875 3 4 C0.5625 6.75 0.5625 6.75 -2 9 C-2.125 5.625 -2.125 5.625 -2 2 C-1.34 1.34 -0.68 0.68 0 0 Z " fill="#629149" transform="translate(12,31)"/>
<path d="M0 0 C4.35522853 0.50642192 7.44239635 1.38411497 11 4 C11 4.66 11 5.32 11 6 C9.53775201 5.57576756 8.08026588 5.13509755 6.625 4.6875 C5.81289062 4.44386719 5.00078125 4.20023437 4.1640625 3.94921875 C2 3 2 3 0 0 Z " fill="#74A366" transform="translate(106,264)"/>
<path d="M0 0 C0.99 0 1.98 0 3 0 C2.03644647 9.41002278 2.03644647 9.41002278 1 14 C0.67 14 0.34 14 0 14 C0 9.38 0 4.76 0 0 Z " fill="#84B37A" transform="translate(331,152)"/>
<path d="M0 0 C1.53760842 3.07521683 0.36599236 5.34675118 -0.4375 8.625 C-0.72496094 9.81351563 -1.01242187 11.00203125 -1.30859375 12.2265625 C-1.53675781 13.14179688 -1.76492188 14.05703125 -2 15 C-2.33 15 -2.66 15 -3 15 C-3.55353075 4.44191344 -3.55353075 4.44191344 0 0 Z " fill="#679F5C" transform="translate(337,135)"/>
<path d="M0 0 C-1.875 3.875 -1.875 3.875 -3 5 C-4.66617115 5.04063832 -6.33388095 5.042721 -8 5 C-8 4.34 -8 3.68 -8 3 C-2.25 0 -2.25 0 0 0 Z " fill="#669959" transform="translate(315,220)"/>
<path d="M0 0 C0.33 0.99 0.66 1.98 1 3 C1.66 3 2.32 3 3 3 C3 6.63 3 10.26 3 14 C2.67 14 2.34 14 2 14 C-0.29612756 4.58997722 -0.29612756 4.58997722 0 0 Z " fill="#7AA165" transform="translate(85,187)"/>
<path d="M0 0 C0.66 1.32 1.32 2.64 2 4 C-0.31 5.32 -2.62 6.64 -5 8 C-3.8141763 4.62496331 -2.72426311 2.35277269 0 0 Z " fill="#79A768" transform="translate(269,291)"/>
<path d="M0 0 C2 2 2 2 2.1953125 4.6015625 C2.17210938 5.59929687 2.14890625 6.59703125 2.125 7.625 C2.10695313 8.62789062 2.08890625 9.63078125 2.0703125 10.6640625 C2.03550781 11.82035156 2.03550781 11.82035156 2 13 C1.67 13 1.34 13 1 13 C0.63779734 11.20994059 0.28547531 9.41787943 -0.0625 7.625 C-0.25972656 6.62726563 -0.45695312 5.62953125 -0.66015625 4.6015625 C-1 2 -1 2 0 0 Z " fill="#88B17D" transform="translate(77,138)"/>
<path d="M0 0 C3.37462715 0.54723683 5.08235 1.0549 8 3 C7.67 3.66 7.34 4.32 7 5 C4.69 4.01 2.38 3.02 0 2 C0 1.34 0 0.68 0 0 Z " fill="#7DA56D" transform="translate(157,288)"/>
<path d="M0 0 C0.86625 0.3403125 0.86625 0.3403125 1.75 0.6875 C0.76 2.1725 0.76 2.1725 -0.25 3.6875 C-3.22 3.1925 -3.22 3.1925 -6.25 2.6875 C-2.80384615 -0.38942308 -2.80384615 -0.38942308 0 0 Z " fill="#6F9E60" transform="translate(276.25,288.3125)"/>
<path d="M0 0 C1.875 0.25 1.875 0.25 4 1 C5.25 3.0625 5.25 3.0625 6 5 C5.01 5.33 4.02 5.66 3 6 C2.01 4.02 1.02 2.04 0 0 Z " fill="#76AC69" transform="translate(297,290)"/>
<path d="M0 0 C2.25245881 2.68841859 3.88213958 4.64641875 5 8 C3.68 7.67 2.36 7.34 1 7 C0.67 4.69 0.34 2.38 0 0 Z " fill="#76A469" transform="translate(111,238)"/>
<path d="M0 0 C0 0.66 0 1.32 0 2 C0.66 2.33 1.32 2.66 2 3 C-1.2830098 4.6415049 -4.42545033 3.51888624 -8 3 C-5.22569089 1.15046059 -3.35957737 0 0 0 Z " fill="#6EA264" transform="translate(24,26)"/>
<path d="M0 0 C0.66 0.66 1.32 1.32 2 2 C-1 4 -1 4 -5 4 C-5 3.01 -5 2.02 -5 1 C-2.625 0.375 -2.625 0.375 0 0 Z " fill="#73A16B" transform="translate(161,329)"/>
<path d="M0 0 C0.33 1.32 0.66 2.64 1 4 C1.66 4 2.32 4 3 4 C3.33 5.98 3.66 7.96 4 10 C3.67 9.34 3.34 8.68 3 8 C2.34 8 1.68 8 1 8 C0.67 5.36 0.34 2.72 0 0 Z " fill="#8DB180" transform="translate(260,312)"/>
<path d="M0 0 C0.66 0 1.32 0 2 0 C2.33 3.63 2.66 7.26 3 11 C-0.317124 6.577168 -0.30466674 5.28089024 0 0 Z " fill="#508B42" transform="translate(108,229)"/>
<path d="M0 0 C0.99 0.495 0.99 0.495 2 1 C3.34008135 5.13191749 3.05825864 5.88348273 1 10 C0.67 6.7 0.34 3.4 0 0 Z " fill="#77A56A" transform="translate(83,177)"/>
<path d="M0 0 C2.72426311 2.35277269 3.8141763 4.62496331 5 8 C2.5 6.8125 2.5 6.8125 0 5 C-0.3125 2.3125 -0.3125 2.3125 0 0 Z " fill="#6B9D5E" transform="translate(74,34)"/>
</svg>
